<?xml version="1.0" encoding="UTF-8"?>
<svg width="40px" height="40px" viewBox="0 0 40 40" version="1.1" xmlns="http://www.w3.org/2000/svg" xmlns:xlink="http://www.w3.org/1999/xlink">
    <!-- Generator: Sketch 55.2 (78181) - https://sketchapp.com -->
    <title>User Copy 2</title>
    <desc>Created with Sketch.</desc>
    <g id="Only-Page" stroke="none" stroke-width="1" fill="none" fill-rule="evenodd" opacity="0.699999988">
        <g id="myle_IndexPage" transform="translate(-26.000000, -568.000000)">
            <g id="Group-6" transform="translate(21.000000, 569.000000)">
                <g id="User-Copy-2" transform="translate(6.000000, 0.000000)">
                    <g id="User-Copy">
                        <rect id="Rectangle" stroke="#FFFFFF" fill-opacity="0" fill="#D8D8D8" x="0" y="0" width="38" height="38" rx="7"></rect>
                        <path d="M18.8533333,19.7809524 C21.7395238,19.7809524 24.0914286,16.9628571 24.0914286,13.4952381 C24.0914286,10.027619 21.7395238,7.20952381 18.8533333,7.20952381 C15.9671429,7.20952381 13.6152381,10.027619 13.6152381,13.4952381 C13.6152381,16.9628571 15.972381,19.7809524 18.8533333,19.7809524 Z M18.8533333,8.78095238 C20.8804762,8.78095238 22.52,10.8761905 22.52,13.4952381 C22.52,16.1142857 20.8804762,18.2095238 18.8533333,18.2095238 C16.8261905,18.2095238 15.1866667,16.1142857 15.1866667,13.4952381 C15.1866667,10.8761905 16.8261905,8.78095238 18.8533333,8.78095238 Z" id="Shape" fill="#FFFFFF"></path>
                        <path d="M23.6461905,19.2571429 C23.2122525,19.2137491 22.8252986,19.5303477 22.7819048,19.9642857 C22.738511,20.3982237 23.0551096,20.7851776 23.4890476,20.8285714 C25.9258209,21.1149076 27.8136903,23.0951902 27.9833333,25.5428571 L9.72333333,25.5428571 C9.90901227,23.1022945 11.7887078,21.1305859 14.217619,20.8285714 C14.6515571,20.7851776 14.9681557,20.3982237 14.9247619,19.9642857 C14.8813681,19.5303477 14.4944142,19.2137491 14.0604762,19.2571429 C14.0028571,19.2571429 8.1152381,19.927619 8.1152381,26.3233333 C8.1152381,26.7572714 8.46701436,27.1090476 8.90095238,27.1090476 L28.8057143,27.1090476 C29.2396523,27.1090476 29.5914286,26.7572714 29.5914286,26.3233333 C29.5914286,19.927619 23.7038095,19.2571429 23.6461905,19.2571429 Z" id="Shape" fill="#FFFFFF"></path>
                    </g>
                </g>
            </g>
        </g>
    </g>
</svg>