<?xml version="1.0" encoding="UTF-8"?>
<svg width="40px" height="40px" viewBox="0 0 40 40" version="1.1" xmlns="http://www.w3.org/2000/svg" xmlns:xlink="http://www.w3.org/1999/xlink">
    <!-- Generator: Sketch 55.2 (78181) - https://sketchapp.com -->
    <title>Group 8</title>
    <desc>Created with Sketch.</desc>
    <g id="Only-Page" stroke="none" stroke-width="1" fill="none" fill-rule="evenodd" opacity="0.699999988">
        <g id="myle_IndexPage" transform="translate(-26.000000, -462.000000)">
            <g id="Group-9" transform="translate(23.000000, 463.000000)">
                <g id="Group-8" transform="translate(4.000000, 0.000000)">
                    <rect id="Rectangle" stroke="#FFFFFF" fill-opacity="0" fill="#D8D8D8" x="0" y="0" width="38" height="38" rx="7"></rect>
                    <g id="list" transform="translate(8.000000, 8.000000)" fill="#FFFFFF" fill-rule="nonzero">
                        <path d="M3,0 C1.34615385,0 0,1.34615385 0,3 C0,4.65384615 1.34615385,6 3,6 C4.65384615,6 6,4.65384615 6,3 C6,1.34615385 4.65384615,0 3,0 Z M3,5.05288462 C1.87019231,5.05288462 0.951923077,4.13461538 0.951923077,3.00480769 C0.951923077,1.875 1.87019231,0.956730769 3,0.956730769 C4.12980769,0.956730769 5.04807692,1.875 5.04807692,3.00480769 C5.04807692,4.13461538 4.12980769,5.05288462 3,5.05288462 Z" id="Shape"></path>
                        <path d="M3,9 C1.34615385,9 0,10.3461538 0,12 C0,13.6538462 1.34615385,15 3,15 C4.65384615,15 6,13.6538462 6,12 C6,10.3461538 4.65384615,9 3,9 Z M3,14.0480769 C1.87019231,14.0480769 0.951923077,13.1298077 0.951923077,12 C0.951923077,10.8701923 1.87019231,9.95192308 3,9.95192308 C4.12980769,9.95192308 5.04807692,10.8701923 5.04807692,12 C5.04807692,13.1298077 4.12980769,14.0480769 3,14.0480769 Z" id="Shape"></path>
                        <path d="M3,17 C1.34615385,17 0,18.3461538 0,20 C0,21.6538462 1.34615385,23 3,23 C4.65384615,23 6,21.6538462 6,20 C6,18.3461538 4.65384615,17 3,17 Z M3,22.0528846 C1.87019231,22.0528846 0.951923077,21.1346154 0.951923077,20.0048077 C0.951923077,18.875 1.87019231,17.9567308 3,17.9567308 C4.12980769,17.9567308 5.04807692,18.875 5.04807692,20.0048077 C5.04807692,21.1298077 4.12980769,22.0528846 3,22.0528846 Z" id="Shape"></path>
                        <path d="M21,2.5 C21,2.22222222 20.8042995,2 20.5596738,2 L9.44032617,2 C9.19570052,2 9,2.22222222 9,2.5 C9,2.77777778 9.19570052,3 9.44032617,3 L20.5596738,3 C20.8042995,3 21,2.77777778 21,2.5 Z" id="Path"></path>
                        <path d="M8.44032617,11 C8.19570052,11 8,11.2222222 8,11.5 C8,11.7777778 8.19570052,12 8.44032617,12 L19.5596738,12 C19.8042995,12 20,11.7777778 20,11.5 C20,11.2222222 19.8042995,11 19.5596738,11 L8.44032617,11 L8.44032617,11 Z" id="Path"></path>
                        <path d="M20,20.5 C20,20.2222222 19.8042995,20 19.5596738,20 L8.44032617,20 C8.19570052,20 8,20.2222222 8,20.5 C8,20.7777778 8.19570052,21 8.44032617,21 L19.5596738,21 C19.8042995,21 20,20.7777778 20,20.5 Z" id="Path"></path>
                    </g>
                </g>
            </g>
        </g>
    </g>
</svg>