<?xml version="1.0" encoding="UTF-8"?>
<svg width="609px" height="395px" viewBox="0 0 609 395" version="1.1" xmlns="http://www.w3.org/2000/svg" xmlns:xlink="http://www.w3.org/1999/xlink">
    <!-- Generator: Sketch 58 (84663) - https://sketch.com -->
    <title>3843</title>
    <desc>Created with Sketch.</desc>
    <defs>
        <linearGradient x1="-1316.20566%" y1="411.173018%" x2="940.824435%" y2="-192.156494%" id="linearGradient-1">
            <stop stop-color="#FFFFFF" offset="0%"></stop>
            <stop stop-color="#9FACFB" offset="100%"></stop>
        </linearGradient>
        <linearGradient x1="-162.280623%" y1="314.131032%" x2="1316.38285%" y2="-1679.42303%" id="linearGradient-2">
            <stop stop-color="#FFFFFF" offset="0%"></stop>
            <stop stop-color="#9FACFB" offset="100%"></stop>
        </linearGradient>
        <linearGradient x1="-449.673963%" y1="1335.20291%" x2="390.305983%" y2="-819.151818%" id="linearGradient-3">
            <stop stop-color="#FFFFFF" offset="0%"></stop>
            <stop stop-color="#9FACFB" offset="100%"></stop>
        </linearGradient>
        <linearGradient x1="-252.118671%" y1="307.163494%" x2="2080.83007%" y2="-1553.64927%" id="linearGradient-4">
            <stop stop-color="#FFFFFF" offset="0%"></stop>
            <stop stop-color="#9FACFB" offset="100%"></stop>
        </linearGradient>
        <linearGradient x1="50.0000642%" y1="8.2589396%" x2="50.0000642%" y2="38.2549193%" id="linearGradient-5">
            <stop stop-color="#EBEBEB" offset="0%"></stop>
            <stop stop-color="#EEEEEE" offset="100%"></stop>
        </linearGradient>
        <linearGradient x1="50.0000642%" y1="-3.39724572%" x2="50.0000642%" y2="50.1283101%" id="linearGradient-6">
            <stop stop-color="#D2D2D2" offset="0%"></stop>
            <stop stop-color="#EEEEEE" offset="100%"></stop>
        </linearGradient>
        <linearGradient x1="129.242648%" y1="117.160999%" x2="75.5973664%" y2="63.00034%" id="linearGradient-7">
            <stop stop-color="#28816D" offset="0%"></stop>
            <stop stop-color="#C6DB6B" offset="100%"></stop>
        </linearGradient>
        <linearGradient x1="203.064269%" y1="114.840029%" x2="99.4436046%" y2="62.5510703%" id="linearGradient-8">
            <stop stop-color="#28816D" offset="0%"></stop>
            <stop stop-color="#C6DB6B" offset="100%"></stop>
        </linearGradient>
        <linearGradient x1="79.6229946%" y1="117.160999%" x2="59.5689716%" y2="63.00034%" id="linearGradient-9">
            <stop stop-color="#28816D" offset="0%"></stop>
            <stop stop-color="#C6DB6B" offset="100%"></stop>
        </linearGradient>
        <linearGradient x1="161.254278%" y1="117.160999%" x2="85.9379271%" y2="63.00034%" id="linearGradient-10">
            <stop stop-color="#28816D" offset="0%"></stop>
            <stop stop-color="#C6DB6B" offset="100%"></stop>
        </linearGradient>
        <linearGradient x1="-0.00131306151%" y1="50.0034833%" x2="99.9932043%" y2="50.0034833%" id="linearGradient-11">
            <stop stop-color="#B3CF38" offset="0%"></stop>
            <stop stop-color="#28816D" offset="100%"></stop>
        </linearGradient>
        <linearGradient x1="50.0044567%" y1="150.759614%" x2="50.0044567%" y2="4.92676515%" id="linearGradient-12">
            <stop stop-color="#D1D5DE" offset="0%"></stop>
            <stop stop-color="#E9E9FD" offset="100%"></stop>
        </linearGradient>
        <linearGradient x1="56.9179461%" y1="175.012148%" x2="49.3761164%" y2="38.3148833%" id="linearGradient-13">
            <stop stop-color="#D1D5DE" offset="0%"></stop>
            <stop stop-color="#E9E9FD" offset="100%"></stop>
        </linearGradient>
        <linearGradient x1="51.6433129%" y1="168.180736%" x2="50.1682822%" y2="63.4460736%" id="linearGradient-14">
            <stop stop-color="#D1D5DE" offset="0%"></stop>
            <stop stop-color="#E9E9FD" offset="100%"></stop>
        </linearGradient>
    </defs>
    <g id="Only-Page" stroke="none" stroke-width="1" fill="none" fill-rule="evenodd" opacity="0.699311756">
        <g id="myle_TicketPage" transform="translate(-467.000000, -412.000000)">
            <g id="3843" transform="translate(467.000000, 411.000000)">
                <g id="Group" transform="translate(334.000000, 10.820000)" fill-rule="nonzero">
                    <g transform="translate(0.380000, 0.000000)" id="Path">
                        <g>
                            <path d="M41.646,0.962 C41.646,0.962 44.246,2.08 45.624,0.988 L44.246,2.106 L41.646,0.962 Z" fill="url(#linearGradient-1)"></path>
                            <path d="M0.046,37.596 C1.346,38.506 2.646,39.988 0.93,41.782 L2.932,39.598 L0.046,37.596 Z" fill="url(#linearGradient-2)"></path>
                        </g>
                        <g transform="translate(0.540000, 7.980000)">
                            <path d="M49.92,4.24 C49.92,4.24 49.452,1.432 50.83,0.366 L49.426,1.432 L49.92,4.24 Z" fill="url(#linearGradient-3)"></path>
                            <path d="M4.446,35.934 C3.874,34.452 2.73,32.84 0.598,34.062 L3.198,32.632 L4.446,35.934 Z" fill="url(#linearGradient-4)"></path>
                        </g>
                    </g>
                </g>
                <polygon id="Path" fill="url(#linearGradient-5)" fill-rule="nonzero" points="608.492 152.728 608.492 395.75 0.638 395.75 0.638 209.33 0.638 209.33 0.638 160.84 20.294 160.84 20.294 185.54 45.358 185.54 55.264 197.084 65.3 197.084 65.3 137.336 88.44 137.336 88.44 152.728 108.07 152.728 108.07 182.446 134.434 182.446 134.434 145.162 155.234 145.162 155.234 160.84 166.05 160.84 175.436 149.946 186.096 149.946 186.096 113.78 215.892 113.78 215.892 167.444 246.338 167.444 246.338 180.366 258.142 180.366 258.142 160.84 303.148 160.84 303.148 182.446 320.36 182.446 320.36 152.728 346.62 152.728 346.62 197.084 348.154 197.084 348.154 137.336 371.294 137.336 371.294 152.728 390.898 152.728 390.898 182.446 417.262 182.446 417.262 145.162 438.062 145.162 438.062 160.84 448.904 160.84 458.264 149.946 468.924 149.946 468.924 113.78 498.72 113.78 498.72 167.444 529.192 167.444 529.192 180.366 540.996 180.366 540.996 160.84 564.682 160.84 564.682 182.446 603.188 182.446 603.188 152.728"></polygon>
                <polygon id="Path" fill="url(#linearGradient-6)" fill-rule="nonzero" points="0.638 309.976 0.638 188.452 23.544 188.452 23.544 210.656 49.83 210.656 57.864 218.664 145.146 218.664 158.744 205.092 186.148 205.092 186.148 182.29 210.12 182.29 210.12 213.048 254.268 213.048 271.272 196.018 325.872 196.018 325.872 224.696 350.13 224.696 361.934 212.892 391.808 212.892 400.258 221.342 437.23 221.342 437.23 189.57 463.542 189.57 463.542 200.048 484.394 200.048 484.394 177.818 503.504 177.818 503.504 211.436 557.142 211.436 562.16 216.454 608.492 216.454 608.492 309.976"></polygon>
                <path d="M260.43,233.796 L263.81,239.1 L266.93,244.014 C266.93,243.988 266.722,243.234 266.358,241.102 C266.28,240.686 266.228,240.244 266.15,239.724 C266.124,239.568 266.098,239.412 266.046,239.282 C266.046,239.282 266.046,239.282 266.046,239.282 C264.694,236.188 260.586,233.874 260.43,233.796 C260.43,233.796 260.43,233.796 260.43,233.796 Z" id="Path" fill="#E6D8D1" fill-rule="nonzero"></path>
                <path d="M266.02,239.23 L266.02,239.23 C266.02,239.23 266.202,239.594 266.358,241.102 L265.136,239.256 C265.136,239.256 262.952,236.136 262.224,235.33 C261.47,234.524 260.456,233.796 260.456,233.796 C260.456,233.796 264.72,235.85 266.02,239.23 Z" id="Path" fill="#F0C85E" fill-rule="nonzero"></path>
                <g id="Group" transform="translate(93.640000, 0.940000)" fill-rule="nonzero">
                    <g id="Path">
                        <path d="M151.138,38.948 C151.138,38.948 147.862,39.52 147.862,41.704 C147.862,43.888 148.954,47.71 148.954,47.71 L150.046,51.818 L153.244,54.548 L154.414,52.936 C154.414,52.936 155.688,51.792 156.884,51.636 C160.966,51.142 160.992,49.946 160.992,49.946 L164.554,47.996 C164.554,47.996 165.932,45.266 164.554,44.434 C163.176,43.602 159.224,41.158 158.886,41.158 C158.548,41.158 156.624,35.958 156.624,35.958 L152.62,30.498 C152.62,30.498 149.786,32.76 150.332,34.242 C150.878,35.698 151.71,36.244 151.424,37.622 C151.138,38.948 151.138,38.948 151.138,38.948 Z" fill="url(#linearGradient-7)"></path>
                        <path d="M230.516,114.218 C230.516,145.964 217.672,174.72 196.898,195.572 C195.364,189.306 195.13,185.562 192.92,182 C190.632,178.334 178.49,160.914 178.49,160.914 C178.49,160.914 161.538,159.77 159.25,158.834 C156.962,157.924 145.054,157.014 145.054,157.014 C145.054,157.014 137.28,150.592 135.434,143.728 C133.588,136.864 134.94,140.192 140.01,132.73 C142.35,129.298 140.01,132.73 146.9,124.488 C153.79,116.246 151.892,117.546 153.4,116.168 C155.116,114.582 165.62,116.246 165.62,116.246 L169.52,115.492 C169.52,115.492 170.976,115.336 178.984,110.318 C186.992,105.274 197.08,109.408 206.258,107.796 C215.41,106.184 217.724,105.274 225.966,102.752 C227.552,102.258 228.774,101.842 229.84,101.374 C230.256,105.586 230.516,109.85 230.516,114.218 Z" fill="url(#linearGradient-8)"></path>
                        <path d="M82.368,199.03 C86.268,205.946 87.958,206.934 87.36,209.092 C86.814,211.042 87.048,216.866 87.1,218.01 C87.126,218.14 87.1,218.296 87.074,218.426 C86.944,219.44 86.32,224.094 86.164,225.706 C50.986,216.554 22.334,191.178 8.684,158.028 C8.918,154.804 9.204,151.034 9.308,149.812 C9.334,149.552 9.308,149.318 9.23,149.058 C8.996,148.148 8.45,145.522 8.606,141.414 C8.814,136.24 5.486,135.876 5.59,134.576 C5.694,133.25 3.588,130.026 3.952,126.958 C4.212,124.8 2.028,124.436 0.702,124.41 C0.624,124.41 0.572,124.41 0.494,124.384 C0.182,121.03 0.052,117.624 0.052,114.192 C0.052,79.326 15.548,48.048 40.04,26.91 C38.428,30.004 37.18,33.696 37.258,37.622 C37.284,38.35 37.986,39.104 38.376,39.754 C38.688,40.274 39.182,40.664 39.78,40.82 C41.08,41.158 43.082,41.808 43.758,42.016 C43.914,42.068 44.096,42.094 44.278,42.12 L54.002,42.952 C54.756,43.004 55.484,42.718 55.952,42.12 L58.11,39.52 C60.06,37.154 61.438,38.116 62.14,39 C62.556,39.546 63.206,39.858 63.882,39.884 L77.896,40.196 L81.562,40.482 C83.356,40.612 84.942,41.704 85.67,43.368 L86.97,46.228 C87.88,48.256 87.62,50.648 86.294,52.442 L79.118,62.166 C78.962,62.374 78.832,62.634 78.754,62.894 L75.27,74.698 C74.828,76.232 72.956,76.83 71.682,75.868 C69.602,74.256 66.924,71.552 65.884,67.678 C65.598,66.586 63.882,66.976 63.05,67.262 C62.712,67.392 62.374,67.418 62.036,67.366 C60.45,67.158 55.9,66.378 53.326,64.558 C51.532,63.284 50.128,61.256 49.27,59.748 C48.646,58.682 47.294,58.292 46.228,58.89 L35.854,64.428 C34.866,64.948 34.424,66.066 34.736,67.132 C35.022,68.042 35.334,68.978 35.672,69.888 C35.906,70.564 36.452,71.084 37.128,71.292 C38.298,71.682 40.17,72.488 41.106,72.904 C41.47,73.06 41.782,73.32 42.016,73.632 C42.952,74.906 45.526,78.416 46.618,79.898 C47.164,80.678 47.788,81.666 48.308,82.602 C48.984,83.772 50.492,84.084 51.584,83.356 C53.092,82.316 55.406,81.172 58.266,81.016 C63.57,80.756 58.266,81.016 61.906,85.254 C65.234,89.102 62.036,92.43 61.412,93.002 C61.36,93.054 61.308,93.106 61.23,93.158 L48.23,102.882 C47.866,103.74 43.862,104.026 39.676,108.108 C35.516,112.164 30.68,111.8 28.21,115.154 C25.74,118.508 23.192,117.442 21.268,119.73 C19.318,121.992 15.522,118.326 15.132,123.578 C14.742,128.83 16.224,127.53 15.418,129.896 C13.728,134.94 16.536,137.15 16.926,137.618 C17.342,138.086 16.926,138.736 18.096,142.662 C19.266,146.614 17.654,145.886 19.188,150.358 C20.696,154.83 24.466,155.142 25.636,156.208 C26.78,157.274 27.118,158.08 29.666,159.51 C32.214,160.94 36.504,156.364 39.598,157.248 C42.666,158.132 44.304,157.404 46.228,157.742 C47.71,158.028 47.892,156.78 52.312,157.404 C61.152,158.626 57.226,157.898 61.152,158.626 C65.078,159.38 67.21,156.156 69.836,160.602 C72.462,165.048 83.252,175.734 83.954,177.996 C84.682,180.258 85.748,177.684 84.682,180.258 C83.616,182.806 83.928,184.158 83.174,188.526 C82.394,192.868 78.468,192.114 82.368,199.03 Z" fill="url(#linearGradient-9)"></path>
                        <path d="M224.016,75.998 C223.366,74.776 222.586,73.528 221.676,72.8 C218.114,69.862 218.114,72.202 218.296,74.49 C218.66,79.248 222.144,80.782 219.726,82.16 C217.308,83.512 217.022,82.706 214.838,78.468 C212.654,74.23 215.67,72.046 213.2,69.576 C210.756,67.132 211.822,61.828 206.362,64.194 C200.876,66.56 195.416,72.592 197.6,75.322 C199.784,78.052 202.254,86.372 205.816,88.374 C209.378,90.376 212.368,92.56 209.092,92.846 C205.816,93.132 204.984,101.608 203.892,99.138 C202.8,96.668 205.816,95.316 202.254,90.376 C198.692,85.436 187.486,74.516 185.562,74.516 C183.638,74.516 177.918,74.802 175.708,77.246 C173.524,79.716 171.054,82.368 170.508,83.772 C169.962,85.176 170.222,86.268 170.508,91.468 C170.794,96.668 174.33,102.414 173.238,104.598 C172.146,106.782 172.952,109.512 167.492,108.706 C162.006,107.874 153.166,116.09 153.816,96.122 C154.18,84.162 155.714,82.446 156.806,78.494 C157.898,74.516 158.73,72.072 157.092,67.964 C155.428,63.856 157.352,54.314 161.746,52.936 C166.114,51.558 165.308,53.508 168.584,52.936 C171.86,52.39 175.968,52.468 177.892,49.972 C179.79,47.45 182,45.812 183.352,45.682 C184.73,45.552 183.352,44.98 185.822,45.682 C188.292,46.384 191.828,46.774 192.114,45.344 C192.4,43.914 191.022,42.562 191.022,41.444 C191.022,40.56 191.75,38.194 193.362,37.362 C192.712,33.332 190.918,28.184 186.082,26.936 C177.84,24.804 171.73,19.058 170.196,18.278 C168.662,17.472 168.662,13.806 167.128,12.584 C165.594,11.362 151.242,9.516 151.242,9.516 L141.466,5.538 L130.52,0.026 C174.07,5.746 209.898,35.776 224.016,75.998 Z" fill="url(#linearGradient-10)"></path>
                    </g>
                    <path d="M211.172,34.996 C211.172,31.642 208.442,28.912 205.088,28.912 C201.734,28.912 199.004,31.642 199.004,34.996 C199.004,35.1 199.004,35.23 199.004,35.334 L199.004,35.334 C199.004,39.962 205.088,47.242 205.088,47.242 C205.088,47.242 211.172,39.962 211.172,35.334 L211.172,35.334 C211.172,35.23 211.172,35.126 211.172,34.996 Z M205.088,38.948 C202.904,38.948 201.136,37.18 201.136,34.996 C201.136,32.812 202.904,31.044 205.088,31.044 C207.272,31.044 209.04,32.812 209.04,34.996 C209.014,37.18 207.246,38.948 205.088,38.948 Z" id="Shape" fill="#D55C33"></path>
                    <path d="M163.124,134.238 C163.124,130.884 160.394,128.154 157.04,128.154 C153.686,128.154 150.956,130.884 150.956,134.238 C150.956,134.342 150.956,134.472 150.956,134.576 L150.956,134.576 C150.956,139.204 157.04,146.484 157.04,146.484 C157.04,146.484 163.124,139.204 163.124,134.576 L163.124,134.576 C163.098,134.472 163.124,134.368 163.124,134.238 Z M157.014,138.19 C154.83,138.19 153.062,136.422 153.062,134.238 C153.062,132.054 154.83,130.286 157.014,130.286 C159.198,130.286 160.966,132.054 160.966,134.238 C160.966,136.422 159.198,138.19 157.014,138.19 Z" id="Shape" fill="#6588F5"></path>
                    <path d="M55.978,75.4 C55.978,72.046 53.248,69.316 49.894,69.316 C46.54,69.316 43.81,72.046 43.81,75.4 C43.81,75.504 43.81,75.634 43.81,75.738 L43.81,75.738 C43.81,80.366 49.894,87.646 49.894,87.646 C49.894,87.646 55.978,80.366 55.978,75.738 L55.978,75.738 C55.978,75.634 55.978,75.53 55.978,75.4 Z M49.894,79.352 C47.71,79.352 45.942,77.584 45.942,75.4 C45.942,73.216 47.71,71.448 49.894,71.448 C52.078,71.448 53.846,73.216 53.846,75.4 C53.846,77.584 52.078,79.352 49.894,79.352 Z" id="Shape" fill="#D55C33"></path>
                    <path d="M29.718,38.012 C29.718,34.658 26.988,31.928 23.634,31.928 C20.28,31.928 17.55,34.658 17.55,38.012 C17.55,38.116 17.55,38.246 17.55,38.35 L17.55,38.35 C17.55,42.978 23.634,50.258 23.634,50.258 C23.634,50.258 29.718,42.978 29.718,38.35 L29.718,38.35 C29.718,38.246 29.718,38.116 29.718,38.012 Z M23.634,41.964 C21.45,41.964 19.682,40.196 19.682,38.012 C19.682,35.828 21.45,34.06 23.634,34.06 C25.818,34.06 27.586,35.828 27.586,38.012 C27.586,40.196 25.818,41.964 23.634,41.964 Z" id="Shape" fill="#7169F5"></path>
                    <path d="M179.816,45.032 C179.816,41.678 177.086,38.948 173.732,38.948 C170.378,38.948 167.648,41.678 167.648,45.032 C167.648,45.136 167.648,45.266 167.648,45.37 L167.648,45.37 C167.648,49.998 173.732,57.278 173.732,57.278 C173.732,57.278 179.816,49.998 179.816,45.37 L179.816,45.37 C179.816,45.266 179.816,45.162 179.816,45.032 Z M173.706,48.984 C171.522,48.984 169.754,47.216 169.754,45.032 C169.754,42.848 171.522,41.08 173.706,41.08 C175.89,41.08 177.658,42.848 177.658,45.032 C177.658,47.216 175.89,48.984 173.706,48.984 Z" id="Shape" fill="#78ADA1"></path>
                    <path d="M158.834,69.29 C157.95,69.29 157.092,69.42 156.312,69.654 C155.272,67.158 152.724,65.39 149.708,65.39 C146.38,65.39 143.572,67.574 142.844,70.538 C142.272,70.33 141.648,70.2 140.972,70.2 C138.19,70.2 135.954,72.332 135.954,74.984 L143.312,74.984 L146.016,74.984 L151.762,74.984 L156.13,74.984 L165.906,74.984 C165.906,71.838 162.734,69.29 158.834,69.29 Z" id="Path" fill="#E9E9E9"></path>
                </g>
                <g id="Group" transform="translate(351.300000, 101.300000)" fill-rule="nonzero">
                    <path d="M9.646,45.942 L9.646,45.942 C14.898,45.942 19.136,41.704 19.136,36.452 L19.136,36.452 C19.136,31.2 14.898,26.962 9.646,26.962 L9.646,26.962 C4.394,26.962 0.156,31.2 0.156,36.452 L0.156,36.452 C0.156,41.678 4.394,45.942 9.646,45.942 Z" id="Path" fill="#D7D7D7" opacity="0.72"></path>
                    <g transform="translate(26.260000, 1.820000)" fill="#D7D7D7" id="Path" opacity="0.72">
                        <path d="M62.712,5.902 L2.938,5.902 C1.3,5.902 0,4.576 0,2.964 L0,2.964 C0,1.326 1.326,0.026 2.938,0.026 L62.712,0.026 C64.35,0.026 65.65,1.352 65.65,2.964 L65.65,2.964 C65.65,4.576 64.324,5.902 62.712,5.902 Z"></path>
                        <path d="M71.864,15.418 L2.938,15.418 C1.3,15.418 -9.09494702e-13,14.092 -9.09494702e-13,12.48 L-9.09494702e-13,12.48 C-9.09494702e-13,10.842 1.326,9.542 2.938,9.542 L71.864,9.542 C73.502,9.542 74.802,10.868 74.802,12.48 L74.802,12.48 C74.802,14.118 73.476,15.418 71.864,15.418 Z"></path>
                    </g>
                    <path d="M9.646,19.032 L9.646,19.032 C14.898,19.032 19.136,14.794 19.136,9.542 L19.136,9.542 C19.136,4.29 14.898,0.052 9.646,0.052 L9.646,0.052 C4.394,0.052 0.156,4.29 0.156,9.542 L0.156,9.542 C0.156,14.768 4.394,19.032 9.646,19.032 Z" id="Path" fill="#D7D7D7" opacity="0.72"></path>
                    <path d="M8.996,41.028 L3.718,36.452 C3.276,36.088 3.25,35.412 3.614,34.996 C3.978,34.554 4.654,34.528 5.07,34.892 L8.788,38.116 L14.092,32.188 C14.482,31.772 15.132,31.72 15.548,32.11 C15.964,32.5 16.016,33.15 15.626,33.566 L8.996,41.028 Z" id="Path" fill="#28816D"></path>
                    <g transform="translate(26.000000, 28.600000)" fill="#D7D7D7" id="Path" opacity="0.72">
                        <path d="M46.644,6.032 L3.172,6.032 C1.534,6.032 0.234,4.706 0.234,3.094 L0.234,3.094 C0.234,1.456 1.56,0.156 3.172,0.156 L46.644,0.156 C48.282,0.156 49.5823759,1.482 49.5823759,3.094 L49.5823759,3.094 C49.608,4.706 48.282,6.032 46.644,6.032 Z"></path>
                        <path d="M58.006,15.548 L3.198,15.548 C1.56,15.548 0.26,14.222 0.26,12.61 L0.26,12.61 C0.26,10.972 1.586,9.672 3.198,9.672 L58.006,9.672 C59.644,9.672 60.944,10.998 60.944,12.61 L60.944,12.61 C60.944,14.248 59.618,15.548 58.006,15.548 Z"></path>
                    </g>
                    <g transform="translate(26.000000, 55.640000)" fill="#D7D7D7" id="Path" opacity="0.72">
                        <path d="M68.9,5.902 L3.172,5.902 C1.534,5.902 0.234,4.576 0.234,2.964 L0.234,2.964 C0.234,1.326 1.56,0.026 3.172,0.026 L68.9,0.026 C70.538,0.026 71.8383759,1.352 71.8383759,2.964 L71.8383759,2.964 C71.864,4.576 70.538,5.902 68.9,5.902 Z"></path>
                        <path d="M62.972,15.444 L3.198,15.444 C1.56,15.444 0.26,14.118 0.26,12.506 L0.26,12.506 C0.26,10.868 1.586,9.568 3.198,9.568 L62.972,9.568 C64.61,9.568 65.91,10.894 65.91,12.506 L65.91,12.506 C65.91,14.118 64.584,15.444 62.972,15.444 Z"></path>
                    </g>
                    <path d="M9.646,72.852 L9.646,72.852 C14.898,72.852 19.136,68.614 19.136,63.362 L19.136,63.362 C19.136,58.11 14.898,53.872 9.646,53.872 L9.646,53.872 C4.394,53.872 0.156,58.11 0.156,63.362 L0.156,63.362 C0.156,68.614 4.394,72.852 9.646,72.852 Z" id="Path" fill="#D7D7D7" opacity="0.72"></path>
                    <path d="M8.996,67.938 L3.718,63.362 C3.276,62.998 3.25,62.322 3.614,61.906 C3.978,61.464 4.654,61.438 5.07,61.802 L8.788,65.026 L14.092,59.098 C14.482,58.682 15.132,58.63 15.548,59.02 C15.964,59.41 16.016,60.06 15.626,60.476 L8.996,67.938 Z" id="Path" fill="#28816D"></path>
                    <path d="M8.996,14.118 L3.718,9.542 C3.276,9.178 3.25,8.502 3.614,8.086 C3.978,7.644 4.654,7.618 5.07,7.982 L8.788,11.206 L14.092,5.278 C14.482,4.862 15.132,4.81 15.548,5.2 C15.964,5.59 16.016,6.24 15.626,6.656 L8.996,14.118 Z" id="Path" fill="#28816D"></path>
                </g>
                <g id="Group" transform="translate(204.920000, 124.700000)" fill-rule="nonzero">
                    <path d="M28.444,223.756 L74.828,223.756 C88.4,223.756 99.398,212.758 99.398,199.186 L99.398,26.598 C99.398,13.026 88.4,2.028 74.828,2.028 L28.444,2.028 C14.872,2.028 3.874,13.026 3.874,26.598 L3.874,199.186 C3.874,212.758 14.872,223.756 28.444,223.756 Z" id="Path" fill="#63799F"></path>
                    <path d="M24.622,225.446 L88.348,225.446 C101.92,225.446 112.918,214.448 112.918,200.876 L112.918,24.596 C112.918,11.024 101.92,0.026 88.348,0.026 L24.622,0.026 C11.05,0.026 0.052,11.024 0.052,24.596 L0.052,200.876 C0.052,214.448 11.05,225.446 24.622,225.446 Z" id="Path" fill="url(#linearGradient-11)"></path>
                </g>
                <g id="Group" transform="translate(255.100000, 183.720000)" fill-rule="nonzero">
                    <path d="M69.082,104.026 L34.762,104.026 C15.548,104.026 0,88.452 0,69.264 L0,34.944 C0,15.73 15.574,0.182 34.762,0.182 L69.082,0.182 C88.296,0.182 103.844,15.756 103.844,34.944 L103.844,69.264 C103.844,88.478 88.27,104.026 69.082,104.026 Z" id="Path" fill="url(#linearGradient-12)" opacity="0.95"></path>
                    <g transform="translate(27.300000, 8.320000)" fill="#E06B56" id="Path">
                        <polygon points="7.15 49.114 0.078 49.114 0.078 42.068 1.378 42.068 1.378 47.814 7.15 47.814"></polygon>
                        <polygon points="49.166 49.114 42.12 49.114 42.12 47.814 47.866 47.814 47.866 42.068 49.166 42.068"></polygon>
                        <polygon points="1.378 7.098 0.078 7.098 0.078 0.052 7.15 0.052 7.15 1.352 1.378 1.352"></polygon>
                        <polygon points="49.166 7.098 47.866 7.098 47.866 1.352 42.12 1.352 42.12 0.052 49.166 0.052"></polygon>
                    </g>
                    <path d="M77.09,91.624 C70.772,91.624 65.65,86.502 65.65,80.184 C65.65,73.866 70.772,68.744 77.09,68.744 C83.408,68.744 88.53,73.866 88.53,80.184 C88.53,86.502 83.408,91.624 77.09,91.624 Z M77.09,70.954 C71.994,70.954 67.86,75.088 67.86,80.184 C67.86,85.28 71.994,89.414 77.09,89.414 C82.186,89.414 86.32,85.28 86.32,80.184 C86.32,75.088 82.186,70.954 77.09,70.954 Z" id="Shape" fill="#E06B56"></path>
                    <polygon id="Path" fill="#E06B56" points="76.362 84.682 71.162 79.482 72.722 77.922 76.362 81.562 81.458 76.466 83.018 78.026"></polygon>
                    <rect id="Rectangle" fill="#E06B56" x="48.412" y="61.464" width="7.02" height="1.3"></rect>
                    <rect id="Rectangle" fill="#E06B56" x="15.288" y="75.92" width="40.82" height="2.522"></rect>
                    <rect id="Rectangle" fill="#E06B56" x="15.288" y="81.952" width="19.344" height="2.522"></rect>
                    <path d="M64.246,43.784 L41.002,43.784 L41.002,13.754 L64.246,13.754 L64.246,43.784 Z M41.444,43.342 L63.804,43.342 L63.804,14.196 L41.444,14.196 L41.444,43.342 Z" id="Shape" fill="#E06B56"></path>
                    <path d="M64.558,45.448 L64.558,51.168 L63.31,51.168 C63.076,49.608 61.672,48.412 59.982,48.412 C58.292,48.412 56.888,49.608 56.654,51.168 L55.926,51.168 C55.692,49.608 54.288,48.412 52.598,48.412 C50.908,48.412 49.504,49.608 49.27,51.168 L48.594,51.168 C48.36,49.608 46.956,48.412 45.266,48.412 C43.576,48.412 42.172,49.608 41.938,51.168 L40.69,51.168 L40.69,45.448 L64.558,45.448 Z" id="Path" fill="#E06B56"></path>
                </g>
                <g id="Group" transform="translate(182.820000, 159.540000)" fill-rule="nonzero">
                    <path d="M36.036,64.87 L28.912,64.87 C13.026,64.87 0.156,52 0.156,36.114 L0.156,28.99 C0.156,13.104 13.026,0.234 28.912,0.234 L36.036,0.234 C51.922,0.234 64.7920392,13.104 64.7920392,28.99 L64.7920392,36.114 C64.818,52 51.922,64.87 36.036,64.87 Z" id="Path" fill="url(#linearGradient-13)" opacity="0.95"></path>
                    <g transform="translate(12.740000, 7.020000)" fill="#E06B56" id="Path">
                        <polygon points="6.006 36.01 0.156 36.01 0.156 30.186 1.248 30.186 1.248 34.944 6.006 34.944"></polygon>
                        <polygon points="40.768 36.01 34.918 36.01 34.918 34.944 39.676 34.944 39.676 30.186 40.768 30.186"></polygon>
                        <polygon points="1.248 5.954 0.156 5.954 0.156 0.13 6.006 0.13 6.006 1.196 1.248 1.196"></polygon>
                        <polygon points="40.768 5.954 39.676 5.954 39.676 1.196 34.918 1.196 34.918 0.13 40.768 0.13"></polygon>
                    </g>
                    <rect id="Rectangle" fill="#E06B56" x="15.6" y="49.842" width="29.926" height="2.08"></rect>
                    <rect id="Rectangle" fill="#E06B56" x="15.6" y="54.834" width="20.488" height="2.08"></rect>
                    <g transform="translate(16.640000, 16.640000)" fill="#E06B56">
                        <path d="M12.948,4.368 C12.948,4.602 12.896,4.81 12.792,4.992 C12.688,5.174 12.558,5.304 12.402,5.434 C12.22,5.538 12.038,5.642 11.804,5.694 C11.57,5.746 11.336,5.772 11.076,5.772 L8.398,5.772 L8.398,0.286 L11.44,0.286 C11.622,0.286 11.804,0.338 11.96,0.416 C12.116,0.494 12.246,0.598 12.35,0.728 C12.454,0.858 12.532,1.014 12.61,1.17 C12.662,1.326 12.688,1.508 12.688,1.69 C12.688,1.95 12.61,2.21 12.48,2.444 C12.35,2.678 12.142,2.86 11.882,2.964 C12.194,3.068 12.454,3.224 12.636,3.458 C12.87,3.692 12.948,3.978 12.948,4.368 Z M9.698,1.352 L9.698,2.496 L10.946,2.496 C11.076,2.496 11.206,2.444 11.31,2.366 C11.414,2.262 11.466,2.132 11.466,1.924 C11.466,1.742 11.414,1.612 11.31,1.508 C11.206,1.404 11.102,1.352 10.972,1.352 L9.698,1.352 L9.698,1.352 Z M11.674,4.108 C11.674,3.926 11.622,3.796 11.518,3.666 C11.414,3.536 11.284,3.484 11.154,3.484 L9.698,3.484 L9.698,4.68 L11.102,4.68 C11.258,4.68 11.414,4.628 11.518,4.524 C11.596,4.42 11.674,4.29 11.674,4.108 Z" id="Shape"></path>
                        <path d="M16.068,4.68 C16.276,4.68 16.458,4.628 16.614,4.55 C16.77,4.472 16.874,4.342 16.978,4.186 C17.082,4.03 17.134,3.874 17.186,3.666 C17.212,3.484 17.238,3.276 17.238,3.068 L17.238,0.26 L18.512,0.26 L18.512,3.068 C18.512,3.458 18.46,3.796 18.382,4.134 C18.278,4.472 18.148,4.758 17.94,4.992 C17.732,5.252 17.498,5.434 17.186,5.564 C16.874,5.694 16.51,5.772 16.094,5.772 C15.652,5.772 15.288,5.694 14.976,5.538 C14.664,5.382 14.404,5.2 14.222,4.94 C14.04,4.68 13.884,4.394 13.806,4.082 C13.728,3.744 13.676,3.406 13.676,3.042 L13.676,0.234 L14.95,0.234 L14.95,3.042 C14.95,3.25 14.976,3.458 15.002,3.64 C15.054,3.822 15.106,4.004 15.21,4.16 C15.314,4.316 15.418,4.42 15.574,4.524 C15.652,4.628 15.834,4.68 16.068,4.68 Z" id="Path"></path>
                        <polygon id="Path" points="20.306 0.286 21.476 2.808 22.672 0.286 24.05 0.286 22.1 3.9 22.1 5.772 20.852 5.772 20.852 3.9 18.928 0.312 20.306 0.312"></polygon>
                        <polygon id="Path" points="4.628 10.66 2.964 10.66 2.964 15.028 1.69 15.028 1.69 10.66 0.026 10.66 0.026 9.542 4.628 9.542 4.628 10.66"></polygon>
                        <polygon id="Path" points="5.252 15.028 5.252 9.542 6.526 9.542 6.526 15.028"></polygon>
                        <path d="M7.254,12.246 C7.254,11.908 7.306,11.596 7.436,11.258 C7.566,10.92 7.748,10.634 7.982,10.374 C8.216,10.114 8.502,9.906 8.84,9.75 C9.178,9.594 9.568,9.516 10.01,9.516 C10.53,9.516 10.972,9.62 11.362,9.854 C11.752,10.088 12.012,10.374 12.22,10.712 L11.258,11.388 C11.206,11.232 11.128,11.128 11.024,11.024 C10.92,10.92 10.816,10.842 10.712,10.79 C10.608,10.738 10.478,10.686 10.374,10.66 C10.244,10.634 10.14,10.634 10.036,10.634 C9.802,10.634 9.594,10.686 9.412,10.79 C9.23,10.894 9.074,11.024 8.97,11.18 C8.84,11.336 8.762,11.518 8.71,11.7 C8.658,11.908 8.632,12.09 8.632,12.298 C8.632,12.506 8.658,12.714 8.736,12.922 C8.814,13.13 8.892,13.312 9.022,13.442 C9.152,13.598 9.308,13.728 9.49,13.806 C9.672,13.884 9.88,13.936 10.088,13.936 C10.192,13.936 10.322,13.91 10.426,13.884 C10.556,13.858 10.66,13.806 10.764,13.754 C10.868,13.702 10.972,13.624 11.076,13.52 C11.18,13.416 11.232,13.312 11.31,13.156 L12.35,13.754 C12.272,13.962 12.142,14.144 11.986,14.3 C11.83,14.456 11.648,14.586 11.44,14.69 C11.232,14.794 10.998,14.872 10.764,14.95 C10.53,15.002 10.296,15.028 10.062,15.028 C9.672,15.028 9.308,14.95 8.97,14.794 C8.632,14.638 8.346,14.43 8.112,14.144 C7.878,13.884 7.696,13.572 7.566,13.234 C7.306,12.948 7.254,12.584 7.254,12.246 Z" id="Path"></path>
                        <polygon id="Path" points="12.87 15.028 12.87 9.542 14.144 9.542 14.144 11.908 16.146 9.542 17.576 9.542 15.522 11.986 17.706 15.028 16.25 15.028 14.69 12.818 14.118 13.416 14.118 15.028"></polygon>
                        <polygon id="Path" points="21.97 13.91 21.97 15.028 18.122 15.028 18.122 9.542 21.892 9.542 21.892 10.66 19.37 10.66 19.37 11.726 21.528 11.726 21.528 12.766 19.37 12.766 19.37 13.936 21.97 13.936"></polygon>
                        <polygon id="Path" points="26.91 10.66 25.246 10.66 25.246 15.028 23.972 15.028 23.972 10.66 22.308 10.66 22.308 9.542 26.91 9.542 26.91 10.66"></polygon>
                        <path d="M30.836,11.154 C30.81,11.128 30.758,11.102 30.68,11.05 C30.602,10.998 30.472,10.946 30.342,10.868 C30.212,10.816 30.056,10.764 29.874,10.712 C29.718,10.66 29.536,10.634 29.38,10.634 C28.938,10.634 28.704,10.79 28.704,11.102 C28.704,11.206 28.73,11.284 28.782,11.336 C28.834,11.388 28.912,11.466 28.99,11.492 C29.094,11.544 29.198,11.596 29.354,11.622 C29.51,11.674 29.666,11.7 29.848,11.752 C30.108,11.83 30.342,11.908 30.55,11.986 C30.758,12.064 30.94,12.168 31.096,12.298 C31.252,12.428 31.356,12.584 31.434,12.766 C31.512,12.948 31.564,13.156 31.564,13.416 C31.564,13.728 31.512,13.988 31.382,14.196 C31.278,14.404 31.122,14.586 30.914,14.716 C30.732,14.846 30.498,14.95 30.264,15.002 C30.03,15.054 29.77,15.08 29.51,15.08 C29.302,15.08 29.094,15.054 28.886,15.028 C28.678,15.002 28.47,14.95 28.262,14.898 C28.054,14.846 27.872,14.768 27.69,14.69 C27.508,14.612 27.326,14.508 27.17,14.404 L27.716,13.312 C27.742,13.338 27.794,13.39 27.924,13.468 C28.028,13.546 28.184,13.624 28.34,13.676 C28.496,13.754 28.704,13.806 28.912,13.858 C29.12,13.91 29.328,13.936 29.536,13.936 C29.978,13.936 30.212,13.806 30.212,13.52 C30.212,13.416 30.186,13.338 30.108,13.26 C30.03,13.182 29.952,13.13 29.822,13.078 C29.692,13.026 29.562,12.974 29.406,12.922 C29.25,12.87 29.068,12.818 28.886,12.766 C28.626,12.688 28.418,12.61 28.236,12.506 C28.054,12.428 27.898,12.324 27.768,12.194 C27.638,12.064 27.56,11.934 27.508,11.778 C27.456,11.622 27.43,11.44 27.43,11.232 C27.43,10.946 27.482,10.686 27.586,10.478 C27.69,10.244 27.846,10.062 28.028,9.906 C28.21,9.75 28.418,9.646 28.678,9.568 C28.912,9.49 29.172,9.464 29.458,9.464 C29.64,9.464 29.848,9.49 30.03,9.516 C30.212,9.542 30.394,9.594 30.576,9.646 C30.758,9.698 30.914,9.776 31.044,9.828 C31.2,9.906 31.33,9.984 31.46,10.036 L30.836,11.154 Z" id="Path"></path>
                    </g>
                </g>
                <g id="Group" transform="translate(249.900000, 135.620000)" fill-rule="nonzero">
                    <path d="M19.084,0.208 L23.764,0.208 C34.19,0.208 42.614,8.658 42.614,19.058 L42.614,23.738 C42.614,34.164 34.164,42.588 23.764,42.588 L19.084,42.588 C8.658,42.588 0.234,34.138 0.234,23.738 L0.234,19.058 C0.234,8.658 8.658,0.208 19.084,0.208 Z" id="Path" fill="url(#linearGradient-14)" opacity="0.95"></path>
                    <rect id="Rectangle" fill="#E06B56" x="9.698" y="32.292" width="9.906" height="1.352"></rect>
                    <rect id="Rectangle" fill="#E06B56" x="9.698" y="35.568" width="14.664" height="1.352"></rect>
                    <g transform="translate(8.060000, 4.940000)" fill="#E06B56" id="Path">
                        <polygon points="3.874 21.944 0.052 21.944 0.052 18.122 0.754 18.122 0.754 21.242 3.874 21.242"></polygon>
                        <polygon points="26.65 21.944 22.828 21.944 22.828 21.242 25.948 21.242 25.948 18.122 26.65 18.122"></polygon>
                        <polygon points="0.754 3.9 0.052 3.9 0.052 0.078 3.874 0.078 3.874 0.78 0.754 0.78"></polygon>
                        <polygon points="26.65 3.9 25.948 3.9 25.948 0.78 22.828 0.78 22.828 0.078 26.65 0.078"></polygon>
                    </g>
                </g>
                <g id="Group" transform="translate(116.160000, 186.580000)" fill-rule="nonzero">
                    <path d="M62.994,58.942 C62.994,58.942 64.918,60.84 65.594,60.736 C66.27,60.632 67.284,61.126 67.908,61.152 C68.532,61.178 70.222,60.684 70.846,60.944 C71.106,61.048 72.38,62.322 72.9,62.478 C73.42,62.634 74.538,62.842 74.408,63.284 C74.252,63.726 73.212,63.83 73.212,63.83 C73.212,63.83 73.68,64.012 73.68,64.454 C73.68,65.312 73.186,65.52 73.186,65.52 C73.186,65.52 73.55,66.014 73.472,66.378 C73.264,67.158 72.796,67.366 72.796,67.366 C72.796,67.366 72.926,67.808 72.666,68.302 C72.328,68.926 71.626,68.9 71.626,68.9 C71.626,68.9 71.392,69.758 70.898,69.81 C70.404,69.862 69.988,69.602 69.598,69.55 C69.208,69.472 65.932,67.73 64.138,65.598 C62.37,63.466 60.16,62.036 60.16,62.036 L62.994,58.942 Z" id="Path" fill="#DBA686"></path>
                    <rect id="Rectangle" fill="#324760" transform="translate(62.987474, 58.480058) rotate(30.000728) translate(-62.987474, -58.480058) " x="52.4317062" y="40.8784452" width="21.1115355" height="35.2032255"></rect>
                    <path d="M72.952,63.57 C72.952,63.57 70.118,62.14 69.156,62.556 C68.194,62.972 69.182,63.544 69.182,63.544 C69.182,63.544 68.22,62.946 67.674,63.674 C67.154,64.376 68.324,65 68.324,65 C68.324,65 67.466,64.74 67.232,65.65 C66.972,66.534 68.09,66.82 68.09,66.82 C68.09,66.82 66.712,67.132 67.388,68.094 C68.558,69.706 70.846,69.862 70.846,69.862 C70.846,69.862 71.444,69.836 71.626,68.952 C71.626,68.952 73.082,68.926 72.874,67.392 C72.874,67.392 74.174,66.482 73.29,65.52 C73.316,65.52 74.616,64.35 72.952,63.57 Z" id="Path" fill="#C99A7D"></path>
                    <path d="M16.948,76.154 C16.948,76.154 14.608,78.338 13.49,78.936 C12.372,79.56 10.188,80.574 10.318,82.628 C10.474,84.682 9.616,89.336 11.202,89.7 C12.814,90.064 16.844,82.316 17.702,80.6 C18.586,78.884 19.6,77.558 19.6,77.558 L16.948,76.154 Z" id="Path" fill="#DBA585"></path>
                    <path d="M12.164,158.444 C12.164,158.444 12.632,161.876 12.944,166.062 C13.256,170.248 16.428,173.654 16.844,174.434 C17.26,175.214 19.236,178.386 17.208,178.516 C15.18,178.672 7.614,172.354 5.716,169 C5.716,169 4.702,165.906 4.546,165.698 C4.39,165.516 3.142,166.27 3.142,166.27 L1.218,164.606 C1.218,164.606 0.412,163.852 0.126,163.436 C-0.16,163.02 0.828,160.992 0.958,160.81 C1.114,160.602 5.3,155.974 7.744,155.142 C10.24,154.31 12.164,158.444 12.164,158.444 Z" id="Path" fill="#263446"></path>
                    <path d="M87.044,166.712 C87.044,166.712 89.852,168.428 93.154,170.716 C96.456,173.004 100.824,172.718 101.656,172.874 C102.488,173.03 105.998,173.498 104.906,175.058 C103.814,176.618 94.688,178.386 91.074,177.762 C91.074,177.762 88.162,176.644 87.928,176.644 C87.694,176.644 87.538,177.996 87.538,177.996 L85.172,178.412 C85.172,178.412 84.132,178.542 83.664,178.516 C83.196,178.464 82.312,176.592 82.208,176.332 C82.104,176.098 81.168,170.248 82,167.934 C82.832,165.646 87.044,166.712 87.044,166.712 Z" id="Path" fill="#263446"></path>
                    <path d="M15.362,153.452 C15.362,153.452 12.242,157.976 12.008,158.808 C11.748,159.64 7.9,159.25 7.536,155.558 C7.536,155.558 11.202,149.812 11.124,149.63 C11.02,149.474 15.362,153.452 15.362,153.452 Z" id="Path" fill="#263446"></path>
                    <path d="M47.966,103.818 C47.966,103.818 47.914,103.948 47.81,104.156 C47.576,104.702 47.082,105.898 46.458,107.458 L46.458,107.458 C43.988,113.438 39.282,124.826 38.554,126.256 C37.566,128.18 33.328,133.718 32.756,134.004 C32.184,134.29 15.934,159.9 15.362,161.018 C15.362,161.018 8.628,157.196 7.77,155.168 C7.77,155.168 21.004,127.14 25.424,122.85 C29.688,118.69 33.172,91.936 37.462,84.11 C41.778,76.258 50.826,96.928 47.966,103.818 Z" id="Path" fill="#324760"></path>
                    <path d="M85.198,161.356 C85.198,161.356 86.732,166.348 87.2,167.05 C87.668,167.726 85.12,170.326 82.156,168.376 C82.156,168.376 80.05,162.24 79.868,162.214 C79.686,162.162 85.198,161.356 85.198,161.356 Z" id="Path" fill="#263446"></path>
                    <path d="M59.458,82.498 C59.458,82.498 71.418,110.11 72.796,114.244 C74.174,118.378 73.524,121.914 74.278,123.63 C75.032,125.346 88.162,167.388 88.162,167.388 C88.162,167.388 81.142,170.794 78.49,169.52 C78.49,169.52 67.622,140.426 65.516,136.292 C63.54,132.392 63.852,120.978 60.81,118.482 C57.768,115.986 37.098,94.146 36.916,84.214 C36.708,74.256 59.458,82.498 59.458,82.498 Z" id="Path" fill="#324760"></path>
                    <path d="M50.826,2.886 C53.816,2.626 60.524,3.9 61.824,11.804 C61.824,11.804 61.668,13.962 61.2,15.652 C60.732,17.342 62.422,22.256 62.058,22.516 C61.668,22.776 60.056,23.14 60.056,23.14 C60.056,23.14 58.522,28.626 56.598,28.652 C54.7,28.678 47.446,27.456 43.806,20.852 C40.166,14.222 38.736,3.926 50.826,2.886 Z" id="Path" fill="#DBA585"></path>
                    <path d="M61.824,11.778 C61.824,11.778 57.092,15.262 52.282,16.12 C47.472,16.978 44.586,22.074 44.586,22.074 C44.586,22.074 36.89,13.13 42.532,5.46 C48.174,-2.236 62.526,2.496 61.824,11.778 Z" id="Path" fill="#20313F"></path>
                    <path d="M46.744,8.762 C44.95,11.856 41.596,13.286 39.256,11.934 C36.916,10.582 36.474,6.968 38.268,3.874 C40.062,0.78 43.416,-0.65 45.756,0.702 C48.096,2.054 48.538,5.668 46.744,8.762 Z" id="Path" fill="#20313F"></path>
                    <path d="M61.694,78.052 C61.798,82.524 61.798,86.502 61.538,87.386 C61.174,88.712 53.556,90.688 46.224,90.324 C44.248,90.22 42.298,89.96 40.53,89.466 C38.84,88.998 37.28,88.322 36.032,87.386 C35.72,87.152 35.434,86.918 35.174,86.658 C35.174,86.658 39.62,73.528 41.466,71.084 C42.896,69.16 41.492,58.864 40.114,52.78 C39.802,51.376 39.49,50.206 39.204,49.426 L39.204,49.426 C39.152,49.244 39.074,49.088 39.022,48.958 C38.06,46.644 38.268,39.338 40.816,34.268 C41.83,32.24 43.208,30.602 45.028,29.744 C45.314,29.614 45.6,29.51 45.886,29.406 C46.068,29.354 46.224,29.302 46.406,29.276 C46.406,29.276 50.618,32.864 53.14,35.204 C53.53,35.568 53.894,35.932 54.18,36.218 C54.752,36.79 55.662,37.726 56.702,38.87 L56.728,38.896 L56.728,38.896 C57.742,39.988 58.86,41.262 59.952,42.536 C61.98,44.928 63.8,47.294 64.164,48.438 C64.918,50.856 62.786,54.574 61.278,56.368 C60.394,57.434 60.68,59.28 60.966,61.022 C61.07,61.672 61.2,62.296 61.252,62.842 C61.278,63.128 61.304,63.388 61.278,63.648 C61.304,64.896 61.59,71.916 61.694,78.052 Z" id="Path" fill="#28816D"></path>
                    <path d="M45.938,29.328 C46.25,26.832 45.548,23.296 45.548,23.296 C45.548,23.296 54.83,26.858 53.348,28.106 C52.958,28.418 52.724,29.016 52.568,29.692 C52.152,31.642 52.49,34.45 52.49,34.45 L55.714,37.804 C56.91,39.026 45.782,30.55 45.938,29.328 Z" id="Path" fill="#DBA585"></path>
                    <path d="M50.254,15.99 C50.202,15.054 49.11,13.702 47.628,15.028 C46.146,16.354 48.356,20.722 49.604,20.254 C50.852,19.76 50.332,16.952 50.254,15.99 Z" id="Path" fill="#DBA585"></path>
                    <path d="M53.322,28.106 C52.932,28.418 52.698,29.016 52.542,29.692 C48.902,27.82 46.978,24.804 46.926,24.7 C49.006,26.936 53.322,28.106 53.322,28.106 Z" id="Path" fill="#997761"></path>
                    <path d="M51.97,16.198 C51.97,16.198 49.864,18.304 50.436,19.526 C51.008,20.748 49.76,22.932 48.122,23.322 C48.122,23.322 50.254,20.8 49.448,19.76 C48.642,18.746 50.436,16.406 50.436,16.406 C50.436,16.406 51.476,15.21 51.97,16.198 Z" id="Path" fill="#20313F"></path>
                    <path d="M45.99,28.652 L53.582,33.176 L53.374,35.1 L56.78,38.922 C56.78,38.922 49.266,33.046 45.054,29.77 L45.99,28.652 Z" id="Path" fill="#E6D8D1"></path>
                    <path d="M49.968,33.956 C49.968,33.956 50.748,37.986 48.876,40.82 C47.004,43.654 43.286,45.734 42.142,46.644 C40.998,47.554 30.832,57.902 30.676,58.396 C30.52,58.89 27.712,66.144 25.268,70.382 C22.798,74.62 20.25,81.068 20.25,81.068 L13.958,78.052 C13.958,78.052 20.406,59.462 23.526,55.692 C26.854,51.662 36.084,39.052 36.084,39.052 C36.084,39.052 43.936,28.236 49.968,33.956 Z" id="Path" fill="#28816D"></path>
                    <path d="M45.756,44.07 C45.756,44.07 40.972,50.466 40.14,52.806 C39.828,51.402 39.516,50.232 39.23,49.452 L39.23,49.452 C39.23,49.426 43.208,45.136 45.756,44.07 Z" id="Path" fill="#1E6655"></path>
                    <path d="M47.836,104.156 C47.602,104.702 47.108,105.898 46.484,107.458 C43.702,102.206 39.906,92.742 39.828,92.534 C41.414,95.758 47.836,104.156 47.836,104.156 Z" id="Path" fill="#27364B"></path>
                </g>
                <g id="Group" transform="translate(344.540000, 188.140000)" fill-rule="nonzero">
                    <path d="M21.138,49.998 C21.138,49.998 21.814,55.51 24.232,55.51 C26.65,55.51 26.104,47.346 26.104,47.346 C26.104,47.346 21.372,46.852 21.138,49.998 Z" id="Path" fill="#9DC4FC"></path>
                    <path d="M10.062,35.958 C10.062,35.958 9.1,34.45 10.192,33.332 C11.622,31.902 10.894,30.888 10.894,30.888 L3.484,33.176 C3.484,33.176 5.07,36.946 5.382,37.596 C5.72,38.35 10.27,37.31 10.062,35.958 Z" id="Path" fill="#DBA686"></path>
                    <path d="M34.814,167.128 C34.814,167.128 33.176,168.948 31.746,170.378 C30.056,172.042 23.322,173.576 22.958,174.46 C22.594,175.344 21.84,177.606 21.84,177.606 C21.84,177.606 25.974,177.814 31.746,177.19 C37.518,176.592 38.792,178.022 40.846,176.878 C42.9,175.734 40.586,168.038 40.586,168.038 L34.814,167.128 Z" id="Path" fill="#9DC4FC"></path>
                    <path d="M15.496,167.024 C15.496,167.024 10.4,171.574 8.814,171.86 C7.228,172.146 0.754,173.862 0.234,175.578 C-0.286,177.32 2.002,179.218 8.632,178.49 C15.262,177.762 21.268,179.556 22.568,176.93 C23.868,174.304 21.71,167.804 21.71,167.804 L15.496,167.024 Z" id="Path" fill="#9DC4FC"></path>
                    <path d="M32.006,22.958 C32.006,22.958 32.24,26.052 31.98,27.534 C31.72,29.016 41.21,26 41.21,26 L39.364,13.13 L32.006,22.958 Z" id="Path" fill="#DBA686"></path>
                    <path d="M15.236,47.866 L14.534,49.426 C14.534,49.426 10.27,35.75 9.724,35.308 C9.178,34.866 5.304,37.18 5.304,37.18 C5.304,37.18 9.724,60.164 11.7,61.854 C13.676,63.57 16.614,61.62 17.836,60.32 C19.058,58.994 22.022,49.764 22.022,49.764 L15.236,47.866 Z" id="Path" fill="#DBA686"></path>
                    <path d="M55.718,45.838 C55.718,45.838 56.056,54.99 54.08,56.108 C52.104,57.2 47.294,58.214 47.294,58.214 L50.05,45.864 L55.718,45.864 L55.718,45.838 Z" id="Path" fill="#DBA686"></path>
                    <path d="M4.212,32.318 L0.078,19.292 C-0.026,18.954 0.182,18.59 0.52,18.512 L7.358,16.952 C7.696,16.874 8.008,17.082 8.086,17.42 L11.128,30.42 C11.206,30.732 10.998,31.07 10.686,31.148 L4.914,32.708 C4.654,32.812 4.316,32.63 4.212,32.318 Z" id="Path" fill="#514E57"></path>
                    <polygon id="Path" fill="#3F3D44" points="4.68 31.538 0.91 19.656 7.67 18.148 10.452 29.978"></polygon>
                    <path d="M3.458,33.15 C3.458,33.15 1.508,29.536 1.378,29.068 C1.248,28.626 0.624,26.572 0.494,25.506 C0.364,24.44 2.47,25.844 2.678,27.014 C2.886,28.158 3.328,28.704 3.666,29.146 C4.004,29.562 6.604,31.226 6.708,32.292 C6.786,33.358 3.458,33.15 3.458,33.15 Z" id="Path" fill="#DBA686"></path>
                    <path d="M10.764,29.536 C10.764,29.536 10.14,29.822 10.166,29.094 C10.192,28.392 10.92,27.118 11.466,27.846 C12.038,28.574 10.764,29.536 10.764,29.536 Z" id="Path" fill="#DBA686"></path>
                    <path d="M10.764,27.352 C10.764,27.352 10.114,28.21 9.906,27.534 C9.672,26.858 10.088,25.038 10.868,25.506 C11.622,26 10.764,27.352 10.764,27.352 Z" id="Path" fill="#DBA686"></path>
                    <path d="M10.218,25.246 C10.218,25.246 9.594,26.39 9.256,25.766 C8.996,25.298 9.542,22.958 10.322,23.426 C11.076,23.92 10.218,25.246 10.218,25.246 Z" id="Path" fill="#DBA686"></path>
                    <path d="M31.538,2.782 C31.538,2.782 24.362,1.43 25.298,10.426 C26.234,19.422 28.47,24.128 32.24,22.906 C35.984,21.684 41.21,14.144 39.182,7.696 C37.128,1.222 31.538,2.782 31.538,2.782 Z" id="Path" fill="#DBA686"></path>
                    <path d="M18.226,96.096 C18.226,96.096 12.376,111.592 11.024,117.884 C9.698,123.994 7.774,127.374 8.086,131.092 C8.424,134.81 16.354,160.706 15.418,168.506 C15.418,168.506 14.976,169.988 16.12,170.482 C16.484,170.638 21.58,171.21 21.736,169.39 C21.892,167.57 20.28,154.544 21.762,146.926 C23.244,139.308 18.824,131.04 19.318,128.726 C19.812,126.412 30.004,114.894 31.174,112.242 C32.344,109.59 35.49,103.714 35.49,103.714 C35.49,103.714 35.984,124.748 35.49,127.062 C34.996,129.376 35.282,132.028 35.724,134.94 C36.166,137.852 38.584,161.434 33.774,169.39 C33.774,169.39 36.478,170.794 40.118,169.39 C40.118,169.39 47.164,148.616 46.332,141.986 C45.5,135.356 45.188,128.726 45.864,127.322 C46.514,125.918 51.402,114.972 51.662,110.188 C51.896,105.352 18.226,96.096 18.226,96.096 Z" id="Path" fill="#DBA686"></path>
                    <path d="M23.036,78 C23.036,78 17.498,94.718 16.224,101.244 C14.95,107.77 9.334,117.702 9.334,117.702 C9.334,117.702 30.212,120.51 38.818,116.038 C47.424,111.566 52.65,110.994 52.65,110.994 C52.65,110.994 56.134,96.46 53.066,86.944 C49.998,77.428 48.672,74.594 48.672,74.594 L23.036,78 Z" id="Path" fill="#B3CF38"></path>
                    <path d="M25.22,9.334 C25.22,9.334 25.584,13.416 28.86,15.912 C32.136,18.408 39.624,14.612 41.366,26.78 C43.108,38.948 45.994,27.534 46.202,25.714 C46.436,23.764 46.488,3.9 40.508,1.3 C35.334,-0.962 31.07,0.26 28.73,1.716 C26.364,3.198 24.492,5.252 25.22,9.334 Z" id="Path" fill="#2E4254"></path>
                    <path d="M47.554,62.738 C46.462,67.548 48.776,73.892 48.646,74.568 C48.542,75.244 43.94,76.856 37.128,79.586 C30.706,82.16 20.93,85.41 20.8,84.916 C20.67,84.422 25.35,68.51 25.116,64.636 C24.882,60.762 22.022,49.79 22.022,49.79 L14.846,47.866 C14.846,47.866 17.108,39.078 18.72,35.984 C20.332,32.89 29.042,28.652 30.316,27.638 C30.602,27.43 30.784,27.066 30.914,26.676 L30.914,26.676 C30.914,26.676 32.63,25.428 36.738,24.96 C40.846,24.492 41.132,25.558 41.132,25.558 C41.236,26.26 41.34,26.806 41.418,27.014 C41.756,27.898 51.116,30.94 52.39,32.318 C53.664,33.696 56.446,45.812 56.446,45.812 C55.224,46.852 51.532,47.216 51.532,47.216 C50.882,49.062 48.672,57.954 47.554,62.738 Z" id="Path" fill="#B3CF38"></path>
                    <path d="M21.736,167.804 C21.736,167.804 20.514,168.48 18.798,167.804 C17.108,167.128 15.496,166.998 15.496,166.998 L14.742,170.664 C14.742,170.664 18.044,173.914 19.552,172.38 C21.06,170.846 23.01,171.756 21.736,167.804 Z" id="Path" fill="#9DC4FC"></path>
                    <path d="M34.814,167.128 C34.814,167.128 35.88,167.674 36.998,168.402 C38.116,169.13 40.56,168.012 40.56,168.012 L41.08,172.016 L32.89,170.898 L34.814,167.128 Z" id="Path" fill="#9DC4FC"></path>
                    <polygon id="Path" fill="#C5977A" points="14.534 49.426 12.948 54.106 13.416 45.89"></polygon>
                </g>
                <text id="Paid" font-family="Roboto-Bold, Roboto" font-size="7" font-weight="bold" fill="#E06B56">
                    <tspan x="264" y="156">PAID</tspan>
                </text>
            </g>
        </g>
    </g>
</svg>