<?xml version="1.0" encoding="utf-8"?>
<!-- Generator: Adobe Illustrator 23.1.0, SVG Export Plug-In . SVG Version: 6.00 Build 0)  -->
<svg version="1.1" id="Layer_1" xmlns="http://www.w3.org/2000/svg" xmlns:xlink="http://www.w3.org/1999/xlink" x="0px" y="0px"
	 viewBox="0 0 205.2 99.8" style="enable-background:new 0 0 205.2 99.8;" xml:space="preserve">
<style type="text/css">
	.st0{opacity:0.3;}
	.st1{fill-rule:evenodd;clip-rule:evenodd;fill:#FFFFFF;}
	.st2{filter:url(#Adobe_OpacityMaskFilter);}
	.st3{mask:url(#mask-2_2_);fill-rule:evenodd;clip-rule:evenodd;fill:#145143;}
	.st4{fill-rule:evenodd;clip-rule:evenodd;fill:#B3CF38;}
	.st5{fill:url(#SVGID_1_);}
	.st6{fill:#F2FCB9;}
	.st7{fill:none;stroke:#AE9F83;stroke-width:3.1767;stroke-miterlimit:10;}
	.st8{fill:#AE9F83;}
	.st9{fill:#655351;}
	.st10{fill:#F1F1DF;}
	.st11{fill:url(#SVGID_2_);}
	.st12{fill:#145143;}
	.st13{filter:url(#Adobe_OpacityMaskFilter_1_);}
	.st14{mask:url(#mask-2_1_);fill-rule:evenodd;clip-rule:evenodd;fill:#145143;}
</style>
<title>3843</title>
<desc>Created with Sketch.</desc>
<g id="Only-Page" class="st0">
	<g id="myle_LoginPage" transform="translate(-666.000000, -123.000000)">
		<g id="MYLE-Logo-Vector-Finals__5-4" transform="translate(666.000000, 123.000000)">
			<g id="MYLE-Logo-Vector-Finals__5-3">
				<g id="MYLE-Logo-Vector-Finals__5-2">
					<g id="MYLE-Logo-Vector-Finals__5">
						<rect id="Rectangle" x="6" y="12.1" class="st1" width="79.3" height="56.5"/>
						<g id="Group-3">
							<g id="Clip-2">
							</g>
							<defs>
								<filter id="Adobe_OpacityMaskFilter" filterUnits="userSpaceOnUse" x="0" y="11.1" width="88.7" height="88.7">
									<feColorMatrix  type="matrix" values="1 0 0 0 0  0 1 0 0 0  0 0 1 0 0  0 0 0 1 0"/>
								</filter>
							</defs>
							<mask maskUnits="userSpaceOnUse" x="0" y="11.1" width="88.7" height="88.7" id="mask-2_2_">
								<g class="st2">
									<path id="path-1_2_" class="st1" d="M6.5,11.1h75.7c3.6,0,6.5,2.9,6.5,6.5v75.7c0,3.6-2.9,6.5-6.5,6.5H6.5
										c-3.6,0-6.5-2.9-6.5-6.5V17.6C0,14,2.9,11.1,6.5,11.1z"/>
								</g>
							</mask>
							<path id="Fill-1" class="st3" d="M0,99.8h88.7V11.1H0V99.8z M78.3,65.4c0,0-15.2,3.1-15.2-17.1V32.8c0,0-2.7-10.1-13.4-1.8
								c-0.5,0.4-0.9,0.6-1.2,0.9l3.2,3.5c0,10.2,0,30,0,30s-15.2,3.1-15.2-17.1V32.8c0,0-2.7-10.1-13.4-1.8
								c-0.5,0.4-0.9,0.6-1.2,0.9l2.9,3.1v29c-1.7,0.5-4.3,0.9-7.1,0.9c-2.9,0-5.4-0.3-7.1-0.9V19c1.7-0.5,4.3-0.9,7.1-0.9
								c2.9,0,5.4,0.3,7.1,0.9v5.3c2.9-2.7,7.3-5.8,12-5.8c5.9,0,10.8,2.7,13.2,7.2c2.7-2.8,7.8-7.2,13.4-7.2
								c8.3,0,14.9,5.4,14.9,13.7C78.3,40.5,78.3,65.4,78.3,65.4L78.3,65.4z"/>
						</g>
						<path id="Fill-4" class="st4" d="M10.5,92.5c0.9,0.2,1.7,0.3,2.3,0.3c0.7,0,1.5-0.1,2.3-0.3l0.3-11.9l2.8,7.8
							c0.3,0.1,0.6,0.1,1,0.2c0.3,0,0.6,0,0.9,0c0.3,0,0.6,0,1-0.1c0.3,0,0.7-0.1,1-0.1l3.2-7.9l0.4,12c0.9,0.2,1.7,0.3,2.4,0.3
							c0.6,0,1.1,0,1.5-0.1c0.4-0.1,0.7-0.1,1-0.2l-1-20.7c-0.4-0.1-0.8-0.1-1.2-0.2c-0.4,0-0.8-0.1-1.2-0.1c-0.4,0-0.8,0-1.2,0.1
							c-0.4,0-0.8,0.1-1.2,0.2l-4.3,10.8l-4.1-10.8c-0.4-0.1-0.8-0.1-1.3-0.2c-0.5,0-0.9-0.1-1.3-0.1c-0.4,0-0.8,0-1.3,0.1
							c-0.5,0-0.9,0.1-1.3,0.2L10.5,92.5z M40.7,79.9l-3.6-8.1c-0.4-0.1-0.8-0.1-1.3-0.2c-0.5,0-0.9-0.1-1.3-0.1c-0.5,0-1,0-1.6,0.1
							c-0.6,0-1,0.1-1.3,0.2c0.5,1,1,2.1,1.6,3.3c0.5,1.1,1.1,2.3,1.6,3.4s1.1,2.3,1.7,3.4c0.6,1.1,1.1,2.2,1.6,3.3v7.4
							c1,0.2,1.9,0.3,2.6,0.3c0.7,0,1.5-0.1,2.6-0.3v-7.4l6.5-13.3c-0.4-0.1-0.8-0.1-1.3-0.2c-0.5,0-0.9-0.1-1.3-0.1
							c-0.5,0-1,0-1.5,0.1c-0.5,0-0.9,0.1-1.4,0.2L40.7,79.9z M51.4,92.6h11.8c0.1-0.5,0.2-0.9,0.2-1.3c0-0.4,0-0.7,0-1
							c0-0.3,0-0.6,0-1c0-0.4-0.1-0.8-0.2-1.3h-6.7V71.8c-0.5-0.1-1-0.1-1.4-0.2c-0.4,0-0.8-0.1-1.2-0.1c-0.3,0-0.7,0-1.1,0.1
							c-0.4,0-0.9,0.1-1.4,0.2V92.6z M76.3,79.5h-5.6v-3.2h7.1c0.2-0.9,0.2-1.7,0.2-2.3c0-0.3,0-0.7-0.1-1c0-0.4-0.1-0.8-0.2-1.2
							H65.6v20.8H78c0.2-0.8,0.3-1.6,0.3-2.3c0-0.7-0.1-1.4-0.3-2.2h-7.3V84h5.6c0.2-0.8,0.3-1.6,0.3-2.3
							C76.6,81.1,76.5,80.3,76.3,79.5L76.3,79.5z"/>
					</g>
				</g>
			</g>
		</g>
	</g>
</g>
<g>
	<g>
		<g>
			
				<linearGradient id="SVGID_1_" gradientUnits="userSpaceOnUse" x1="285.6386" y1="-622.7589" x2="408.4206" y2="-622.7589" gradientTransform="matrix(0.9376 -0.3476 0.3476 0.9376 31.1095 755.451)">
				<stop  offset="1.052630e-02" style="stop-color:#F3F096"/>
				<stop  offset="0.4368" style="stop-color:#FFFFFF"/>
				<stop  offset="0.5206" style="stop-color:#FDFDF2"/>
				<stop  offset="0.6764" style="stop-color:#FAF8CF"/>
				<stop  offset="0.8858" style="stop-color:#F3F097"/>
				<stop  offset="0.8895" style="stop-color:#F3F096"/>
			</linearGradient>
			<path class="st5" d="M190.8,11.2L190,9c-5.5,2-11.5-0.8-13.6-6.2L81.1,38.2c2,5.5-0.8,11.5-6.2,13.6l0.8,2.2
				c3-1.1,6.4,0.4,7.5,3.4c1.1,3-0.4,6.4-3.4,7.5l0.7,2c3-1.1,6.4,0.4,7.5,3.4c1.1,3-0.4,6.4-3.4,7.5l0.7,2c3-1.1,6.4,0.4,7.5,3.4
				c1.1,3-0.4,6.4-3.4,7.5l0.8,2.2c5.5-2,11.5,0.8,13.6,6.2L199,63.7c-2-5.5,0.8-11.5,6.2-13.6l-0.8-2.2c-3,1.1-6.4-0.4-7.5-3.4
				c-1.1-3,0.4-6.4,3.4-7.5l-0.7-2c-3,1.1-6.4-0.4-7.5-3.4c-1.1-3,0.4-6.4,3.4-7.5l-0.7-2c-3,1.1-6.4-0.4-7.5-3.4
				C186.2,15.7,187.7,12.3,190.8,11.2z"/>
			<path class="st6" d="M87.9,70.2c0,0.1,0,0.1,0,0.2l104.2-38.6c0-0.1-0.1-0.1-0.1-0.1c-1.1-3,0.4-6.4,3.4-7.5l-0.7-2
				c-3,1.1-6.4-0.4-7.5-3.4c-1.1-3,0.4-6.4,3.4-7.5L190,9c-5.5,2-11.5-0.8-13.6-6.2L81.1,38.2c2,5.5-0.8,11.5-6.2,13.6l0.8,2.2
				c3-1.1,6.4,0.4,7.5,3.4c1.1,3-0.4,6.4-3.4,7.5l0.7,2C83.4,65.7,86.8,67.2,87.9,70.2z"/>
			
				<rect x="91.9" y="23.2" transform="matrix(0.9376 -0.3476 0.3476 0.9376 -9.1729 51.565)" class="st7" width="94.4" height="56.2"/>
			
				<rect x="167.8" y="12.2" transform="matrix(0.9376 -0.3477 0.3477 0.9376 -2.3747 63.1061)" class="st8" width="13.7" height="51.9"/>
			
				<rect x="104.8" y="85.2" transform="matrix(0.9376 -0.3476 0.3476 0.9376 -23.3422 44.2411)" class="st8" width="13.7" height="3.8"/>
			
				<rect x="103.7" y="83.5" transform="matrix(0.9376 -0.3477 0.3477 0.9376 -22.3578 43.666)" class="st8" width="13.7" height="1.2"/>
			
				<rect x="102.8" y="81.3" transform="matrix(0.9377 -0.3475 0.3475 0.9377 -21.6148 43.2065)" class="st8" width="13.7" height="1.2"/>
			<rect x="102" y="79" transform="matrix(0.9376 -0.3477 0.3477 0.9376 -20.886 42.7968)" class="st8" width="13.7" height="1.2"/>
			
				<rect x="101.1" y="76.7" transform="matrix(0.9376 -0.3477 0.3477 0.9376 -20.1533 42.3702)" class="st8" width="13.7" height="1.2"/>
			
				<rect x="98.8" y="68.6" transform="matrix(0.9376 -0.3476 0.3476 0.9376 -18.0776 41.1393)" class="st8" width="13.7" height="4.7"/>
			
				<rect x="94.5" y="57" transform="matrix(0.9376 -0.3477 0.3477 0.9376 -14.3004 38.9156)" class="st8" width="13.7" height="4.7"/>
			
				<rect x="90.4" y="47.1" transform="matrix(0.9376 -0.3478 0.3478 0.9376 -10.7128 36.8119)" class="st8" width="13.7" height="2.3"/>
			
				<rect x="96.6" y="64" transform="matrix(0.9376 -0.3477 0.3477 0.9376 -16.2144 40.0464)" class="st8" width="13.7" height="2.3"/>
			
				<rect x="88.7" y="42.5" transform="matrix(0.9377 -0.3475 0.3475 0.9377 -9.24 35.9116)" class="st8" width="13.7" height="2.3"/>
			
				<rect x="92.8" y="53.7" transform="matrix(0.9377 -0.3474 0.3474 0.9377 -12.871 38.0447)" class="st8" width="13.7" height="2.3"/>
			
				<rect x="100.3" y="74.5" transform="matrix(0.9377 -0.3475 0.3475 0.9377 -19.4087 41.9038)" class="st8" width="13.7" height="1.2"/>
			<polygon class="st8" points="109.2,60.9 96.3,65.6 96.1,64.9 108.9,60.1 			"/>
			
				<rect x="92" y="52.3" transform="matrix(0.9376 -0.3477 0.3477 0.9376 -12.1641 37.6559)" class="st8" width="13.7" height="0.8"/>
			<polygon class="st8" points="104.7,48.8 91.9,53.6 91.6,52.9 104.4,48.1 			"/>
			<polygon class="st8" points="102.9,44.1 90.1,48.8 89.8,48.1 102.7,43.3 			"/>
			
				<rect x="87.8" y="41.1" transform="matrix(0.9377 -0.3475 0.3475 0.9377 -8.5026 35.4775)" class="st8" width="13.7" height="0.8"/>
			
				<rect x="97.5" y="66.9" transform="matrix(0.9376 -0.3477 0.3477 0.9376 -16.9599 40.4901)" class="st8" width="13.7" height="1.2"/>
			<g>
				<path class="st9" d="M117.2,42.4l1.1,2.9l-2.2,0.8l4.3,11.5l-3.7,1.4l-4.3-11.5l-2.2,0.8l-1.1-2.9L117.2,42.4z"/>
				<path class="st9" d="M121.8,40.7l5.3,14.3l-3.7,1.4l-5.3-14.3L121.8,40.7z"/>
				<path class="st9" d="M134.3,43.2l-3.7,1.4l-0.9-2.5c-0.3-0.7-0.5-1.2-0.6-1.3c-0.1-0.2-0.4-0.2-0.6-0.1
					c-0.3,0.1-0.5,0.3-0.5,0.5c0,0.2,0.1,0.7,0.4,1.5l2.5,6.7c0.3,0.7,0.5,1.1,0.6,1.3c0.2,0.2,0.4,0.2,0.7,0.1
					c0.3-0.1,0.4-0.3,0.4-0.5c0-0.2-0.1-0.8-0.4-1.5l-0.7-1.8l3.7-1.4l0.2,0.6c0.6,1.5,0.8,2.6,0.9,3.3c0,0.7-0.2,1.4-0.8,2.1
					c-0.5,0.7-1.3,1.3-2.4,1.7c-1.1,0.4-2.1,0.5-2.9,0.4c-0.9-0.1-1.5-0.5-2-1.1c-0.5-0.6-1-1.6-1.5-3l-1.6-4.2
					c-0.4-1-0.6-1.8-0.8-2.4c-0.1-0.5-0.1-1.1,0.1-1.7c0.2-0.6,0.5-1.2,1-1.7c0.5-0.5,1.2-0.9,2-1.2c1.1-0.4,2.1-0.5,3-0.4
					c0.9,0.2,1.5,0.5,2,1.1c0.5,0.6,0.9,1.5,1.4,2.8L134.3,43.2z"/>
				<path class="st9" d="M142.3,33.2l0.3,7.3l5.3,7l-3.9,1.4l-3.8-5.6l2.3,6.2l-3.7,1.4l-5.3-14.3l3.7-1.4l2.1,5.6l-0.4-6.2
					L142.3,33.2z"/>
				<path class="st9" d="M143.1,32.8l6.2-2.3l1.1,2.9l-2.5,0.9l1,2.7l2.3-0.9l1,2.7l-2.3,0.9l1.2,3.2l2.7-1l1.1,2.9l-6.5,2.4
					L143.1,32.8z"/>
				<path class="st9" d="M157.9,27.3l1.1,2.9l-2.2,0.8l4.3,11.5l-3.7,1.4L153,32.4l-2.2,0.8l-1.1-2.9L157.9,27.3z"/>
			</g>
			<g>
				<path class="st9" d="M135.9,56.8l2.9,7.8l-1.8,0.7l-2-5.3l1.3,5.6L135,66l-2.7-4.9l1.9,5.2l-1.8,0.7l-2.9-7.8l2.6-1
					c0.3,0.4,0.5,1,0.9,1.6l1,1.9l-0.9-3.8L135.9,56.8z"/>
				<path class="st9" d="M143,59.4c0.3,0.8,0.5,1.4,0.6,1.7s0.1,0.7,0,1c-0.1,0.3-0.3,0.7-0.6,0.9c-0.3,0.3-0.6,0.5-1.1,0.6
					c-0.4,0.2-0.8,0.2-1.2,0.2c-0.4,0-0.7-0.1-1-0.3c-0.3-0.2-0.5-0.5-0.7-0.8c-0.2-0.3-0.4-0.9-0.7-1.7l-0.5-1.3
					c-0.3-0.8-0.5-1.4-0.6-1.7c-0.1-0.3-0.1-0.7,0-1c0.1-0.3,0.3-0.6,0.6-0.9c0.3-0.3,0.6-0.5,1.1-0.6c0.4-0.2,0.8-0.2,1.2-0.2
					c0.4,0,0.7,0.1,1,0.3c0.3,0.2,0.5,0.5,0.7,0.8c0.2,0.3,0.4,0.9,0.7,1.7L143,59.4z M140,57.5c-0.1-0.4-0.2-0.6-0.3-0.7
					c-0.1-0.1-0.2-0.1-0.3-0.1c-0.1,0-0.2,0.1-0.2,0.2c0,0.1,0,0.4,0.2,0.8l1.4,3.7c0.2,0.5,0.3,0.7,0.4,0.8
					c0.1,0.1,0.2,0.1,0.3,0.1c0.1-0.1,0.2-0.1,0.2-0.3c0-0.1-0.1-0.4-0.3-0.9L140,57.5z"/>
				<path class="st9" d="M146.9,52.7l1.9,8.2l-3.1,1.1l-4.1-7.4l2.1-0.8c1.1,2.1,1.9,3.8,2.6,5.3c-0.5-1.5-0.8-2.9-1.2-4.1l-0.4-1.5
					L146.9,52.7z"/>
				<path class="st9" d="M149.3,51.8l2.9,7.8l-2,0.8l-2.9-7.8L149.3,51.8z"/>
				<path class="st9" d="M150.1,51.5l3.4-1.3l0.6,1.6l-1.4,0.5l0.6,1.5l1.3-0.5l0.6,1.5l-1.3,0.5l0.6,1.7l1.5-0.6l0.6,1.6l-3.5,1.3
					L150.1,51.5z"/>
			</g>
			<g>
				<path class="st10" d="M175.7,46.8l0.9,2.4l-0.4,0.2c-0.4,0.2-0.7,0.3-0.8,0.4s-0.1,0.3-0.1,0.4c0.1,0.1,0.2,0.2,0.3,0.3
					c0.1,0,0.3,0,0.6-0.1c0.4-0.1,0.6-0.3,0.7-0.5c0.1-0.2,0.2-0.8,0.4-1.7c0.1-0.8,0.3-1.3,0.4-1.6c0.1-0.3,0.3-0.6,0.6-0.9
					c0.3-0.3,0.7-0.5,1.3-0.7c0.9-0.3,1.6-0.4,2.3-0.1c0.7,0.2,1.2,0.8,1.6,1.5l0.9-0.3l0.4,1.1l-1,0.4c0.2,0.7,0.1,1.3-0.1,2
					c-0.3,0.7-0.9,1.2-2,1.6l-0.5,0.2l-0.9-2.4l0.6-0.2c0.7-0.2,1.1-0.4,1.2-0.5c0.1-0.1,0.2-0.3,0.1-0.5c-0.1-0.2-0.2-0.3-0.3-0.3
					c-0.1,0-0.3,0-0.5,0.1c-0.5,0.2-0.9,0.4-1.1,0.6c-0.2,0.2-0.4,0.5-0.5,1.1c-0.2,0.9-0.3,1.6-0.5,1.9c-0.1,0.4-0.3,0.7-0.7,1
					c-0.3,0.3-0.7,0.6-1.2,0.8c-0.7,0.3-1.4,0.3-2,0c-0.6-0.3-1.1-0.8-1.5-1.6l-0.8,0.3l-0.4-1.1l0.8-0.3c-0.2-0.8-0.1-1.5,0.1-2
					c0.3-0.5,0.8-0.9,1.5-1.2C175.4,46.9,175.5,46.9,175.7,46.8z"/>
				<path class="st10" d="M173.7,39.8l3.3-1.2c0.7-0.3,1.3-0.4,1.7-0.5c0.4,0,0.7,0,1.1,0.1s0.7,0.4,1,0.7c0.3,0.3,0.5,0.7,0.6,1.1
					c0.2,0.6,0.3,1.1,0.3,1.5c0,0.4-0.1,0.8-0.3,1.2c-0.2,0.3-0.4,0.6-0.7,0.8c-0.3,0.2-0.8,0.5-1.5,0.7l-3.4,1.3
					c-0.9,0.3-1.6,0.5-2.1,0.5c-0.5,0-1-0.2-1.4-0.5c-0.4-0.4-0.8-0.9-1-1.5c-0.2-0.5-0.3-1.1-0.3-1.5c0-0.5,0.1-0.9,0.3-1.2
					c0.2-0.3,0.4-0.6,0.8-0.8C172.4,40.3,172.9,40.1,173.7,39.8z M173.7,42.6c-0.5,0.2-0.8,0.3-1,0.4c-0.1,0.1-0.1,0.2-0.1,0.4
					c0.1,0.2,0.2,0.3,0.3,0.3c0.2,0,0.5-0.1,1-0.3l4.8-1.8c0.6-0.2,0.9-0.4,1-0.5c0.1-0.1,0.1-0.2,0-0.4c-0.1-0.2-0.2-0.3-0.3-0.3
					c-0.2,0-0.5,0.1-1,0.3L173.7,42.6z"/>
				<path class="st10" d="M177.2,35.6l2-0.7l0.7,1.8l-2,0.7L177.2,35.6z"/>
				<path class="st10" d="M170.3,30.9l3.3-1.2c0.7-0.3,1.3-0.4,1.7-0.5c0.4,0,0.7,0,1.1,0.1c0.4,0.1,0.7,0.4,1,0.7
					c0.3,0.3,0.5,0.7,0.6,1.1c0.2,0.6,0.3,1.1,0.3,1.5c0,0.4-0.1,0.8-0.3,1.2c-0.2,0.3-0.4,0.6-0.7,0.8c-0.3,0.2-0.8,0.5-1.5,0.7
					l-3.4,1.3c-0.9,0.3-1.6,0.5-2.1,0.5c-0.5,0-1-0.2-1.4-0.5c-0.4-0.4-0.8-0.9-1-1.5c-0.2-0.5-0.3-1.1-0.3-1.5
					c0-0.5,0.1-0.9,0.3-1.2c0.2-0.3,0.4-0.6,0.8-0.8C169.1,31.4,169.6,31.1,170.3,30.9z M170.4,33.6c-0.5,0.2-0.8,0.3-1,0.4
					c-0.1,0.1-0.1,0.2-0.1,0.4c0.1,0.2,0.2,0.3,0.3,0.3c0.2,0,0.5-0.1,1-0.3l4.8-1.8c0.6-0.2,0.9-0.4,1-0.5c0.1-0.1,0.1-0.2,0-0.4
					c-0.1-0.2-0.2-0.3-0.3-0.3c-0.2,0-0.5,0.1-1,0.3L170.4,33.6z"/>
				<path class="st10" d="M167.9,24.2l3.3-1.2c0.7-0.3,1.3-0.4,1.7-0.5c0.4,0,0.7,0,1.1,0.2c0.4,0.1,0.7,0.4,1,0.7
					c0.3,0.3,0.5,0.7,0.6,1.1c0.2,0.6,0.3,1.1,0.3,1.5c0,0.4-0.1,0.8-0.3,1.2c-0.2,0.3-0.4,0.6-0.7,0.8c-0.3,0.2-0.8,0.5-1.5,0.7
					L170,30c-0.9,0.3-1.6,0.5-2.1,0.5c-0.5,0-1-0.2-1.4-0.5c-0.4-0.4-0.8-0.9-1-1.5c-0.2-0.5-0.3-1.1-0.3-1.5c0-0.5,0.1-0.9,0.3-1.2
					c0.2-0.3,0.4-0.6,0.8-0.8C166.6,24.7,167.1,24.5,167.9,24.2z M168,27c-0.5,0.2-0.8,0.3-1,0.4c-0.1,0.1-0.1,0.2-0.1,0.4
					c0.1,0.2,0.2,0.3,0.3,0.3c0.2,0,0.5-0.1,1-0.3l4.8-1.8c0.6-0.2,0.9-0.4,1-0.5c0.1-0.1,0.1-0.2,0-0.4c-0.1-0.2-0.2-0.3-0.3-0.3
					c-0.2,0-0.5,0.1-1,0.3L168,27z"/>
			</g>
			
				<rect x="115.1" y="52.6" transform="matrix(0.9376 -0.3477 0.3477 0.9376 -9.8677 51.938)" class="st9" width="49.4" height="1.6"/>
			
				<rect x="119.2" y="67.7" transform="matrix(0.9376 -0.3476 0.3476 0.9376 -14.7562 54.8669)" class="st8" width="52.6" height="1.6"/>
			
				<rect x="120.5" y="71.2" transform="matrix(0.9376 -0.3476 0.3476 0.9376 -15.893 55.5367)" class="st8" width="52.6" height="1.6"/>
			<g>
				<polygon class="st8" points="121.8,31 123.3,32.4 125.3,32 124.4,33.8 125.5,35.6 123.4,35.4 122,36.9 121.7,34.9 119.8,34 
					121.6,33 				"/>
				<polygon class="st8" points="130.2,27.7 131.7,29.1 133.8,28.7 132.9,30.5 133.9,32.3 131.9,32.1 130.5,33.6 130.1,31.6 
					128.2,30.7 130,29.7 				"/>
				<polyline class="st8" points="140.2,25.8 142.2,25.4 141.3,27.3 142.4,29 140.3,28.8 138.9,30.3 138.5,28.3 136.7,27.4 
					138.5,26.5 				"/>
			</g>
		</g>
		<g>
			
				<linearGradient id="SVGID_2_" gradientUnits="userSpaceOnUse" x1="88.1653" y1="-132.6793" x2="210.9377" y2="-132.6793" gradientTransform="matrix(0.9954 -9.620000e-02 9.620000e-02 0.9954 -15.5012 206.2289)">
				<stop  offset="1.052630e-02" style="stop-color:#F3F096"/>
				<stop  offset="0.4591" style="stop-color:#FFFFFF"/>
				<stop  offset="0.5388" style="stop-color:#FDFDF2"/>
				<stop  offset="0.6869" style="stop-color:#FAF8CF"/>
				<stop  offset="0.886" style="stop-color:#F3F097"/>
				<stop  offset="0.8895" style="stop-color:#F3F096"/>
			</linearGradient>
			<path class="st11" d="M179.8,34.3l-0.2-2.3c-5.8,0.6-11-3.7-11.5-9.5L66.9,32.4c0.6,5.8-3.7,11-9.5,11.5l0.2,2.3
				c3.2-0.3,6.1,2,6.4,5.2c0.3,3.2-2,6.1-5.2,6.4l0.2,2.1c3.2-0.3,6.1,2,6.4,5.2c0.3,3.2-2,6.1-5.2,6.4l0.2,2.1
				c3.2-0.3,6.1,2,6.4,5.2c0.3,3.2-2,6.1-5.2,6.4l0.2,2.3c5.8-0.6,11,3.7,11.5,9.5l101.2-9.8c-0.6-5.8,3.7-10.9,9.5-11.5l-0.2-2.3
				c-3.2,0.3-6.1-2-6.4-5.2c-0.3-3.2,2-6.1,5.2-6.4l-0.2-2.1c-3.2,0.3-6.1-2-6.4-5.2c-0.3-3.2,2-6.1,5.2-6.4l-0.2-2.1
				c-3.2,0.3-6.1-2-6.4-5.2C174.3,37.5,176.6,34.7,179.8,34.3z"/>
			<path class="st6" d="M65.3,65.1c0,0.1,0,0.1,0,0.2l110.6-10.7c0-0.1,0-0.1,0-0.2c-0.3-3.2,2-6.1,5.2-6.4l-0.2-2.1
				c-3.2,0.3-6.1-2-6.4-5.2c-0.3-3.2,2-6.1,5.2-6.4l-0.2-2.3c-5.8,0.6-11-3.7-11.5-9.5L66.9,32.4c0.6,5.8-3.7,11-9.5,11.5l0.2,2.3
				c3.2-0.3,6.1,2,6.4,5.2c0.3,3.2-2,6.1-5.2,6.4l0.2,2.1C62.1,59.6,65,61.9,65.3,65.1z"/>
			
				<rect x="72.4" y="31.9" transform="matrix(0.9954 -9.626148e-02 9.626148e-02 0.9954 -5.2153 11.7934)" class="st7" width="94.4" height="56.2"/>
			
				<rect x="150.5" y="30.3" transform="matrix(0.9953 -9.642175e-02 9.642175e-02 0.9953 -4.6956 15.4343)" class="st8" width="13.7" height="51.9"/>
			
				<rect x="77" y="85.6" transform="matrix(0.9953 -9.639904e-02 9.639904e-02 0.9953 -8.0492 8.4937)" class="st8" width="13.7" height="3.8"/>
			
				<rect x="76.7" y="83.7" transform="matrix(0.9954 -9.617565e-02 9.617565e-02 0.9954 -7.7225 8.4281)" class="st8" width="13.7" height="1.2"/>
			
				<rect x="76.5" y="81.3" transform="matrix(0.9954 -9.615880e-02 9.615880e-02 0.9954 -7.4911 8.3932)" class="st8" width="13.7" height="1.2"/>
			<polygon class="st8" points="90,79.5 76.4,80.8 76.2,79.6 89.9,78.3 			"/>
			
				<rect x="76" y="76.5" transform="matrix(0.9953 -9.646317e-02 9.646317e-02 0.9953 -7.0519 8.3535)" class="st8" width="13.7" height="1.2"/>
			
				<rect x="75.4" y="68" transform="matrix(0.9954 -9.592988e-02 9.592988e-02 0.9954 -6.3674 8.2113)" class="st8" width="13.7" height="4.7"/>
			
				<rect x="74.2" y="55.6" transform="matrix(0.9954 -9.614559e-02 9.614559e-02 0.9954 -5.1983 8.0582)" class="st8" width="13.7" height="4.7"/>
			
				<rect x="73" y="45.1" transform="matrix(0.9954 -9.619860e-02 9.619860e-02 0.9954 -4.0771 7.8993)" class="st8" width="13.7" height="2.3"/>
			
				<rect x="74.8" y="63.1" transform="matrix(0.9954 -9.616461e-02 9.616461e-02 0.9954 -5.7984 8.1472)" class="st8" width="13.7" height="2.3"/>
			
				<rect x="72.6" y="40.3" transform="matrix(0.9954 -9.617565e-02 9.617565e-02 0.9954 -3.6159 7.8303)" class="st8" width="13.7" height="2.3"/>
			
				<rect x="73.7" y="52.1" transform="matrix(0.9954 -9.615880e-02 9.615880e-02 0.9954 -4.7531 7.9945)" class="st8" width="13.7" height="2.3"/>
			
				<rect x="75.8" y="74.1" transform="matrix(0.9954 -9.617013e-02 9.617013e-02 0.9954 -6.8012 8.2936)" class="st8" width="13.7" height="1.2"/>
			
				<rect x="74.5" y="61.4" transform="matrix(0.9954 -9.614860e-02 9.614860e-02 0.9954 -5.5624 8.1116)" class="st8" width="13.7" height="0.8"/>
			
				<rect x="73.5" y="50.6" transform="matrix(0.9953 -9.640457e-02 9.640457e-02 0.9953 -4.5409 7.9831)" class="st8" width="13.7" height="0.8"/>
			
				<rect x="73.3" y="48.6" transform="matrix(0.9954 -9.618726e-02 9.618726e-02 0.9954 -4.3407 7.9367)" class="st8" width="13.7" height="0.8"/>
			
				<rect x="72.8" y="43.5" transform="matrix(0.9954 -9.618697e-02 9.618697e-02 0.9954 -3.8574 7.8664)" class="st8" width="13.7" height="0.8"/>
			
				<rect x="72.3" y="38.6" transform="matrix(0.9954 -9.617013e-02 9.617013e-02 0.9954 -3.3847 7.7963)" class="st8" width="13.7" height="0.8"/>
			
				<rect x="75" y="66.1" transform="matrix(0.9954 -9.617894e-02 9.617894e-02 0.9954 -6.0322 8.1823)" class="st8" width="13.7" height="1.2"/>
			<g>
				<path class="st12" d="M101.4,48.8l0.3,3l-2.4,0.2l1.2,12.2l-4,0.4l-1.2-12.2L93,52.7l-0.3-3L101.4,48.8z"/>
				<path class="st12" d="M106.3,48.3l1.5,15.2l-4,0.4l-1.5-15.2L106.3,48.3z"/>
				<path class="st12" d="M117.7,53.9l-4,0.4l-0.3-2.6c-0.1-0.8-0.2-1.2-0.3-1.4c-0.1-0.2-0.3-0.3-0.6-0.2c-0.3,0-0.5,0.2-0.6,0.4
					c-0.1,0.2-0.1,0.7,0,1.5l0.7,7.1c0.1,0.7,0.2,1.2,0.3,1.4c0.1,0.2,0.3,0.3,0.6,0.3c0.3,0,0.5-0.2,0.5-0.4c0.1-0.2,0.1-0.8,0-1.6
					l-0.2-1.9l4-0.4L118,57c0.2,1.6,0.1,2.7,0,3.4c-0.2,0.7-0.6,1.3-1.3,1.9c-0.7,0.6-1.6,0.9-2.7,1c-1.2,0.1-2.1,0-2.9-0.4
					c-0.8-0.3-1.3-0.9-1.7-1.6c-0.3-0.7-0.5-1.8-0.7-3.3l-0.4-4.4c-0.1-1.1-0.1-1.9-0.1-2.5c0-0.6,0.2-1.1,0.5-1.7
					c0.3-0.5,0.8-1,1.4-1.3c0.6-0.4,1.4-0.6,2.2-0.7c1.2-0.1,2.2,0,3,0.4c0.8,0.4,1.4,0.9,1.7,1.5c0.3,0.7,0.5,1.7,0.7,3.1
					L117.7,53.9z"/>
				<path class="st12" d="M128,46.2l-1.6,7.1l3.3,8.1l-4.1,0.4l-2.2-6.4l0.6,6.5l-4,0.4l-1.5-15.2l4-0.4l0.6,5.9l1.2-6.1L128,46.2z"
					/>
				<path class="st12" d="M128.9,46.1l6.6-0.6l0.3,3l-2.6,0.3l0.3,2.9l2.5-0.2l0.3,2.9l-2.5,0.2l0.3,3.3l2.9-0.3l0.3,3l-6.9,0.7
					L128.9,46.1z"/>
				<path class="st12" d="M144.6,44.6l0.3,3l-2.4,0.2l1.2,12.2l-4,0.4l-1.2-12.2l-2.3,0.2l-0.3-3L144.6,44.6z"/>
			</g>
			<g>
				<path class="st10" d="M156.3,65l0.3,2.6l-0.4,0c-0.5,0-0.8,0.1-0.9,0.2c-0.1,0.1-0.2,0.2-0.2,0.4c0,0.2,0.1,0.3,0.2,0.3
					c0.1,0.1,0.3,0.1,0.6,0.1c0.4,0,0.7-0.1,0.8-0.3c0.1-0.2,0.4-0.7,0.8-1.5c0.3-0.7,0.6-1.2,0.8-1.4c0.2-0.3,0.5-0.5,0.8-0.7
					c0.4-0.2,0.8-0.3,1.4-0.4c0.9-0.1,1.7,0.1,2.2,0.5c0.6,0.4,1,1,1.2,1.9l1-0.1l0.1,1.2l-1,0.1c0,0.7-0.2,1.3-0.6,1.9
					c-0.4,0.6-1.2,0.9-2.4,1l-0.5,0l-0.3-2.6l0.6-0.1c0.7-0.1,1.1-0.1,1.3-0.2c0.2-0.1,0.2-0.2,0.2-0.4c0-0.2-0.1-0.3-0.2-0.4
					c-0.1-0.1-0.3-0.1-0.5-0.1c-0.6,0.1-1,0.1-1.2,0.2c-0.2,0.1-0.5,0.4-0.7,0.9c-0.4,0.8-0.7,1.4-0.9,1.7c-0.2,0.3-0.5,0.6-0.9,0.8
					c-0.4,0.2-0.9,0.4-1.4,0.5c-0.8,0.1-1.4-0.1-1.9-0.5c-0.5-0.4-0.8-1-1-1.9l-0.8,0.1l-0.1-1.2l0.8-0.1c0-0.8,0.2-1.4,0.6-1.9
					c0.4-0.4,1-0.7,1.7-0.8C155.9,65,156,65,156.3,65z"/>
				<path class="st10" d="M156.1,57.7l3.5-0.3c0.8-0.1,1.4-0.1,1.7,0c0.4,0.1,0.7,0.2,1.1,0.4c0.3,0.2,0.6,0.5,0.8,0.9
					c0.2,0.4,0.3,0.8,0.3,1.3c0.1,0.6,0,1.1-0.1,1.6c-0.1,0.4-0.3,0.8-0.6,1c-0.3,0.3-0.6,0.5-0.9,0.6c-0.3,0.1-0.9,0.2-1.6,0.3
					l-3.6,0.4c-1,0.1-1.7,0.1-2.2,0c-0.5-0.1-0.9-0.4-1.2-0.9c-0.3-0.5-0.5-1-0.6-1.7c-0.1-0.6,0-1.1,0.2-1.6
					c0.2-0.5,0.4-0.8,0.6-1.1c0.3-0.3,0.6-0.4,0.9-0.5C154.7,57.9,155.3,57.8,156.1,57.7z M155.4,60.4c-0.6,0.1-0.9,0.1-1,0.2
					c-0.1,0.1-0.2,0.2-0.2,0.4c0,0.2,0.1,0.3,0.3,0.4c0.2,0,0.5,0,1,0l5.1-0.5c0.6-0.1,1-0.1,1.1-0.2c0.1-0.1,0.2-0.2,0.1-0.4
					c0-0.2-0.1-0.3-0.3-0.4c-0.2,0-0.5,0-1,0L155.4,60.4z"/>
				<path class="st10" d="M160.6,54.6l2.1-0.2l0.2,2l-2.1,0.2L160.6,54.6z"/>
				<path class="st10" d="M155.1,48.2l3.5-0.3c0.8-0.1,1.4-0.1,1.7,0c0.4,0.1,0.7,0.2,1.1,0.4c0.3,0.2,0.6,0.5,0.8,0.9
					c0.2,0.4,0.3,0.8,0.3,1.3c0.1,0.6,0,1.1-0.1,1.6c-0.1,0.4-0.3,0.8-0.6,1c-0.3,0.3-0.6,0.5-0.9,0.6c-0.3,0.1-0.9,0.2-1.6,0.3
					l-3.6,0.4c-1,0.1-1.7,0.1-2.2,0c-0.5-0.1-0.9-0.4-1.2-0.9c-0.3-0.5-0.5-1-0.6-1.7c-0.1-0.6,0-1.1,0.2-1.6
					c0.2-0.5,0.4-0.8,0.6-1.1c0.3-0.3,0.6-0.4,0.9-0.5C153.8,48.4,154.3,48.3,155.1,48.2z M154.5,50.9c-0.6,0.1-0.9,0.1-1,0.2
					c-0.1,0.1-0.2,0.2-0.2,0.4c0,0.2,0.1,0.3,0.3,0.4c0.2,0,0.5,0,1,0l5.1-0.5c0.6-0.1,1-0.1,1.1-0.2c0.1-0.1,0.2-0.2,0.1-0.4
					c0-0.2-0.1-0.3-0.3-0.4c-0.2,0-0.5,0-1,0L154.5,50.9z"/>
				<path class="st10" d="M154.5,41.2l3.5-0.3c0.8-0.1,1.4-0.1,1.7,0c0.4,0.1,0.7,0.2,1.1,0.4c0.3,0.2,0.6,0.5,0.8,0.9
					c0.2,0.4,0.3,0.8,0.3,1.3c0.1,0.6,0,1.1-0.1,1.6c-0.1,0.4-0.3,0.8-0.6,1c-0.3,0.3-0.6,0.5-0.9,0.6c-0.3,0.1-0.9,0.2-1.6,0.3
					l-3.6,0.4c-1,0.1-1.7,0.1-2.2,0c-0.5-0.1-0.9-0.4-1.2-0.9c-0.3-0.5-0.5-1-0.6-1.7c-0.1-0.6,0-1.1,0.2-1.6
					c0.2-0.5,0.4-0.8,0.6-1.1c0.3-0.3,0.6-0.4,0.9-0.5C153.1,41.3,153.7,41.2,154.5,41.2z M153.8,43.8c-0.6,0.1-0.9,0.1-1,0.2
					c-0.1,0.1-0.2,0.2-0.2,0.4c0,0.2,0.1,0.3,0.3,0.4c0.2,0,0.5,0,1,0l5.1-0.5c0.6-0.1,1-0.1,1.1-0.2c0.1-0.1,0.2-0.2,0.2-0.4
					c0-0.2-0.1-0.3-0.3-0.4c-0.2,0-0.5,0-1,0L153.8,43.8z"/>
			</g>
			<polygon class="st8" points="95.3,81.6 147.7,76.5 148.1,77.9 95.7,82.9 			"/>
			<polygon class="st8" points="95.7,85.3 148,80.2 148.5,81.6 96.1,86.7 			"/>
		</g>
	</g>
</g>
<path id="Fill-4_1_" class="st4" d="M98.7,81.5c0.6,0.1,1.1,0.1,1.6,0c0.5,0,1-0.2,1.6-0.3l-0.5-8.1l2.4,5.1c0.2,0,0.4,0,0.7,0
	c0.2,0,0.4,0,0.6,0c0.2,0,0.4-0.1,0.6-0.1c0.2,0,0.5-0.1,0.7-0.2l1.7-5.5l1,8.1c0.6,0.1,1.2,0.1,1.6,0c0.4,0,0.8-0.1,1-0.2
	c0.3-0.1,0.5-0.1,0.7-0.2l-2-13.9c-0.3,0-0.6,0-0.9,0c-0.3,0-0.6,0-0.8,0c-0.3,0-0.5,0.1-0.8,0.1c-0.3,0.1-0.5,0.1-0.8,0.2l-2.2,7.6
	l-3.5-7c-0.3,0-0.6,0-0.9,0c-0.3,0-0.6,0-0.9,0c-0.3,0-0.6,0.1-0.9,0.1c-0.3,0.1-0.6,0.1-0.9,0.2L98.7,81.5z M118.3,71.1l-2.9-5.2
	c-0.3,0-0.5,0-0.9,0c-0.3,0-0.6,0-0.9,0c-0.3,0-0.7,0.1-1.1,0.1c-0.4,0.1-0.7,0.1-0.9,0.2c0.4,0.7,0.8,1.4,1.3,2.1
	c0.4,0.7,0.9,1.5,1.3,2.2c0.4,0.7,0.9,1.5,1.3,2.2c0.4,0.7,0.9,1.4,1.3,2.1l0.5,5c0.7,0.1,1.3,0.1,1.8,0c0.5,0,1-0.2,1.7-0.3l-0.5-5
	l3.5-9.4c-0.3,0-0.6,0-0.9,0c-0.4,0-0.6,0-0.9,0c-0.3,0-0.7,0.1-1,0.1c-0.3,0.1-0.6,0.1-0.9,0.2L118.3,71.1z M126.3,79l8-0.7
	c0-0.3,0-0.6,0-0.9c0-0.2,0-0.5,0-0.7c0-0.2,0-0.4-0.1-0.7c0-0.2-0.1-0.5-0.2-0.8l-4.5,0.4l-1-11c-0.3,0-0.7,0-1,0
	c-0.3,0-0.6,0-0.8,0c-0.2,0-0.5,0.1-0.8,0.1c-0.3,0.1-0.6,0.1-0.9,0.2L126.3,79z M142.4,68.6l-3.8,0.4l-0.2-2.2l4.8-0.4
	c0-0.6,0.1-1.1,0-1.6c0-0.2-0.1-0.5-0.1-0.7c0-0.2-0.1-0.5-0.2-0.8l-8.3,0.8l1.3,14.1l8.4-0.8c0.1-0.6,0.1-1.1,0-1.6
	c0-0.4-0.1-0.9-0.3-1.5l-4.9,0.5l-0.3-2.8l3.8-0.4c0.1-0.6,0.1-1.1,0-1.5C142.6,69.6,142.5,69.1,142.4,68.6L142.4,68.6z"/>
<g id="Only-Page_1_">
	<g id="myle_LoginPage_1_" transform="translate(-666.000000, -123.000000)">
		<g id="MYLE-Logo-Vector-Finals__5-4_1_" transform="translate(666.000000, 123.000000)">
			<g id="MYLE-Logo-Vector-Finals__5-3_1_">
				<g id="MYLE-Logo-Vector-Finals__5-2_1_">
					<g id="MYLE-Logo-Vector-Finals__5_1_">
						
							<rect id="Rectangle_1_" x="110.6" y="36.1" transform="matrix(0.9957 -9.286334e-02 9.286334e-02 0.9957 -3.1361 10.8368)" class="st1" width="8.5" height="6.1"/>
						<g id="Group-3_1_">
							<g id="Clip-2_1_">
							</g>
							<defs>
								<filter id="Adobe_OpacityMaskFilter_1_" filterUnits="userSpaceOnUse" x="109.7" y="35.6" width="10.4" height="10.4">
									<feColorMatrix  type="matrix" values="1 0 0 0 0  0 1 0 0 0  0 0 1 0 0  0 0 0 1 0"/>
								</filter>
							</defs>
							<mask maskUnits="userSpaceOnUse" x="109.7" y="35.6" width="10.4" height="10.4" id="mask-2_1_">
								<g class="st13">
									<path id="path-1_1_" class="st1" d="M110.4,36.4l8.1-0.8c0.4,0,0.7,0.2,0.8,0.6l0.8,8.1c0,0.4-0.2,0.7-0.6,0.8l-8.1,0.8
										c-0.4,0-0.7-0.2-0.8-0.6l-0.8-8.1C109.7,36.8,110,36.4,110.4,36.4z"/>
								</g>
							</mask>
							<path id="Fill-1_1_" class="st14" d="M110.6,45.9l9.5-0.9l-0.9-9.5l-9.5,0.9L110.6,45.9z M118.6,41.5c0,0-1.6,0.5-1.8-1.7
								l-0.2-1.7c0,0-0.4-1.1-1.5-0.1c0,0-0.1,0.1-0.1,0.1l0.4,0.3c0.1,1.1,0.3,3.2,0.3,3.2s-1.6,0.5-1.8-1.7l-0.2-1.7
								c0,0-0.4-1.1-1.5-0.1c0,0-0.1,0.1-0.1,0.1l0.3,0.3l0.3,3.1c-0.2,0.1-0.4,0.1-0.8,0.2c-0.3,0-0.6,0-0.8,0l-0.4-4.8
								c0.2-0.1,0.4-0.1,0.8-0.2c0.3,0,0.6,0,0.8,0l0.1,0.6c0.3-0.3,0.7-0.7,1.2-0.7c0.6-0.1,1.2,0.2,1.5,0.6
								c0.3-0.3,0.8-0.8,1.4-0.9c0.9-0.1,1.6,0.4,1.7,1.3C118.4,38.8,118.6,41.5,118.6,41.5L118.6,41.5z"/>
						</g>
						<path id="Fill-4_2_" class="st4" d="M111.6,45.1c0.1,0,0.2,0,0.3,0c0.1,0,0.2,0,0.2-0.1l-0.1-1.3l0.4,0.8c0,0,0.1,0,0.1,0
							c0,0,0.1,0,0.1,0c0,0,0.1,0,0.1,0c0,0,0.1,0,0.1,0l0.3-0.9l0.2,1.3c0.1,0,0.2,0,0.3,0c0.1,0,0.1,0,0.2,0c0,0,0.1,0,0.1,0
							l-0.3-2.2c0,0-0.1,0-0.1,0c0,0-0.1,0-0.1,0c0,0-0.1,0-0.1,0c0,0-0.1,0-0.1,0l-0.3,1.2l-0.5-1.1c0,0-0.1,0-0.1,0
							c0,0-0.1,0-0.1,0c0,0-0.1,0-0.1,0c-0.1,0-0.1,0-0.1,0L111.6,45.1z M114.7,43.4l-0.5-0.8c0,0-0.1,0-0.1,0c-0.1,0-0.1,0-0.1,0
							c-0.1,0-0.1,0-0.2,0c-0.1,0-0.1,0-0.1,0c0.1,0.1,0.1,0.2,0.2,0.3c0.1,0.1,0.1,0.2,0.2,0.3c0.1,0.1,0.1,0.2,0.2,0.3
							c0.1,0.1,0.1,0.2,0.2,0.3l0.1,0.8c0.1,0,0.2,0,0.3,0c0.1,0,0.2,0,0.3-0.1l-0.1-0.8l0.6-1.5c0,0-0.1,0-0.1,0
							c-0.1,0-0.1,0-0.1,0c-0.1,0-0.1,0-0.2,0c-0.1,0-0.1,0-0.1,0L114.7,43.4z M116,44.7l1.3-0.1c0-0.1,0-0.1,0-0.1c0,0,0-0.1,0-0.1
							c0,0,0-0.1,0-0.1c0,0,0-0.1,0-0.1l-0.7,0.1l-0.2-1.7c-0.1,0-0.1,0-0.2,0c0,0-0.1,0-0.1,0c0,0-0.1,0-0.1,0c0,0-0.1,0-0.2,0
							L116,44.7z M118.6,43l-0.6,0.1l0-0.3l0.8-0.1c0-0.1,0-0.2,0-0.2c0,0,0-0.1,0-0.1c0,0,0-0.1,0-0.1l-1.3,0.1l0.2,2.2l1.3-0.1
							c0-0.1,0-0.2,0-0.2c0-0.1,0-0.1,0-0.2L118,44l0-0.4l0.6-0.1c0-0.1,0-0.2,0-0.2C118.6,43.2,118.6,43.1,118.6,43L118.6,43z"/>
					</g>
				</g>
			</g>
		</g>
	</g>
</g>
</svg>
