<?xml version="1.0" encoding="UTF-8"?>
<svg width="40px" height="40px" viewBox="0 0 40 40" version="1.1" xmlns="http://www.w3.org/2000/svg" xmlns:xlink="http://www.w3.org/1999/xlink">
    <!-- Generator: Sketch 55.2 (78181) - https://sketchapp.com -->
    <title>Group 4</title>
    <desc>Created with Sketch.</desc>
    <g id="Only-Page" stroke="none" stroke-width="1" fill="none" fill-rule="evenodd" opacity="0.699999988">
        <g id="myle_IndexPage" transform="translate(-26.000000, -144.000000)">
            <g id="Group-13" transform="translate(21.000000, 145.000000)">
                <g id="Group-4" transform="translate(6.000000, 0.000000)">
                    <rect id="Rectangle-Copy-8" stroke="#FFFFFF" fill-opacity="0" fill="#D8D8D8" x="0" y="0" width="38" height="38" rx="7"></rect>
                    <g id="discover" transform="translate(6.000000, 6.000000)" fill="#FFFFFF" fill-rule="nonzero">
                        <path d="M13.5047798,1.44338525e-07 C8.10309244,-0.000787210892 3.22115933,3.21969249 1.09507094,8.18639636 L0.926805991,8.24219633 L0.992042402,8.43794624 C-1.80727451,15.3435304 1.52028862,23.2113829 8.424438,26.0112816 C10.0369584,26.6652437 11.7607181,27.0009436 13.5007869,26.9999894 C20.9550591,27.0011123 26.9988752,20.9578402 27,13.5020188 C27.0011248,6.04619739 20.9591083,0.00106903822 13.5047798,1.44338525e-07 Z M24.0918058,20.3064655 L23.3987251,19.6136909 L23.3987251,17.9999917 C23.3995125,17.9303542 23.3841032,17.8615042 23.3537345,17.7988417 L21.5991,14.2937934 L21.5991,12.5999942 C21.5991,12.4495818 21.5240219,12.3090694 21.3988917,12.2255944 L20.0491728,11.3255949 C19.9433886,11.2549449 19.8126346,11.2323886 19.6892478,11.2634949 L18.0362921,11.6765947 L15.2599204,10.4849953 L14.87795,7.80839654 L15.9365795,6.74999705 L18.2090561,6.74999705 L18.9738968,7.8997465 C19.0429574,8.00313395 19.1517785,8.07339017 19.2744342,8.09369641 L21.9738719,8.54369619 C22.0461944,8.55584618 22.1203164,8.54993994 22.1898269,8.5265962 L24.6760091,7.6976966 C26.7612685,11.7001634 26.5382274,16.5140924 24.0918058,20.3064655 Z M22.2361673,4.43429816 L21.5046197,4.92209793 L19.4651945,4.51394812 L18.1420201,4.07339833 C18.061037,4.0458921 17.9738676,4.0424046 17.8909724,4.06349834 L16.2182208,4.48154814 L15.4848736,4.23719826 L16.0283604,3.14999878 L17.5499434,3.14999878 C17.6197351,3.15005503 17.6885708,3.13391129 17.7510515,3.1027488 L19.3077273,2.32424917 C20.3797415,2.88393641 21.3659361,3.59448606 22.2361673,4.43429816 Z M8.57296331,1.90484937 L9.6527384,2.62484903 C9.70582734,2.66017401 9.76577735,2.683799 9.82865176,2.694149 L12.0088976,3.05774882 L11.7960919,3.69449852 L10.6600786,4.07384833 C10.5583435,4.10771082 10.4720177,4.17678578 10.4166793,4.26869824 L9.12454842,6.42239721 L7.04913072,7.66799661 L3.98976798,8.1049464 C3.76802042,8.13627764 3.60312977,8.32600879 3.60284858,8.54999619 L3.60284858,9.89999554 C3.60284858,10.019358 3.65031369,10.1337704 3.73467112,10.2181454 L4.50266115,10.986295 L4.50266115,11.7593946 L2.631051,10.5110952 L1.95214242,8.47394622 C3.24382336,5.52194764 5.61128647,3.17294877 8.57296331,1.90484937 Z M7.29208012,16.6589923 L5.25850371,16.2517425 L4.50266115,14.7437932 L4.50266115,13.6862937 L6.17901197,12.0095945 L6.79943274,13.2511439 C6.87563561,13.4036939 7.03158438,13.5000501 7.20209886,13.4999938 L10.0967959,13.4999938 L11.315592,15.5317428 C11.3969126,15.6671365 11.5432446,15.7499365 11.7011617,15.7499927 L12.9519012,15.7499927 L12.6369668,17.328142 L10.9336216,19.0318412 C10.8490954,19.1161599 10.8015179,19.2305723 10.8013491,19.349991 L10.8013491,20.4749905 L9.18168652,21.6899899 C9.06842261,21.7749836 9.001724,21.9083523 9.001724,22.0499897 L9.001724,23.6753889 L8.44204058,23.489989 L7.65200515,21.51359 L7.65200515,17.0999921 C7.65206138,16.8861297 7.50156773,16.7017423 7.29208012,16.6589923 Z M5.93966182,23.5766702 C1.69766417,20.3935405 -0.0962809024,14.8936431 1.45274644,9.82079558 L1.82661856,10.942195 C1.858112,11.0370887 1.92031155,11.11882 2.00343173,11.1743949 L4.24621457,12.6697442 L3.73467112,13.181844 C3.65031369,13.2662189 3.60284858,13.3806314 3.60284858,13.4999938 L3.60284858,14.8499932 C3.60279234,14.9197994 3.61893273,14.9886493 3.65008874,15.0511431 L4.54990131,16.8511422 C4.61221333,16.9754546 4.72845786,17.0639921 4.86483571,17.0909921 L6.75444211,17.4685419 L6.75444211,21.5999899 C6.75438587,21.6571399 6.76523986,21.7138399 6.78638545,21.7669398 L7.68619802,24.0169388 C7.73546276,24.139845 7.83635425,24.2348512 7.96199058,24.2765886 L9.31170943,24.7265884 C9.35681254,24.7418884 9.4040527,24.7497634 9.45163029,24.7499884 C9.70009103,24.7499884 9.90153657,24.548501 9.90153657,24.2999886 L9.90153657,22.2749896 L11.5211992,21.0599902 C11.6344631,20.9749965 11.7011617,20.8416278 11.7011617,20.6999904 L11.7011617,19.5362909 L13.3689643,17.8681417 C13.43167,17.8053105 13.4744111,17.7252668 13.4917887,17.6381918 L13.941695,15.3881929 C13.9903974,15.1444618 13.8323678,14.9074244 13.5886873,14.8587119 C13.5597246,14.8529182 13.530312,14.8499932 13.5007869,14.8499932 L11.9558087,14.8499932 L10.7370125,12.8182441 C10.655692,12.6828505 10.50936,12.6000505 10.3514429,12.5999942 L7.48014095,12.5999942 L6.70720195,11.048845 C6.64247168,10.9193575 6.51942231,10.8289076 6.37652083,10.8058451 C6.23367558,10.7811514 6.08784971,10.8282888 5.98645208,10.931845 L5.40247372,11.5136948 L5.40247372,10.7999951 C5.40247372,10.6806327 5.35500861,10.5662202 5.27065118,10.4818453 L4.50266115,9.71369563 L4.50266115,8.940146 L7.26598555,8.54549619 C7.32531694,8.53688994 7.3823988,8.51652745 7.4338006,8.48564622 L9.68333203,7.13564687 C9.74643138,7.09773438 9.79929537,7.04485941 9.83719997,6.98174694 L11.1014366,4.87439795 L12.2932384,4.47659814 C12.4278166,4.43244191 12.5334321,4.32686071 12.5775792,4.19219828 L13.0274854,2.84219893 C13.1054317,2.60623029 12.9773771,2.35169916 12.7414575,2.2737367 C12.7196933,2.2665367 12.6973667,2.2610242 12.6747589,2.25719921 L10.0707013,1.82294941 L9.61314664,1.51784956 C12.4443507,0.596137503 15.5107994,0.710212448 18.2657443,1.83959941 L17.4437655,2.24999921 L15.7503183,2.24999921 C15.5789602,2.24904296 15.4219992,2.34556791 15.3454026,2.49884909 L14.4455901,4.29884823 C14.3347444,4.52126062 14.4251193,4.79148549 14.6474855,4.90235419 C14.6664378,4.91180418 14.6860087,4.91990418 14.7060858,4.92659793 L16.0558047,5.37659771 C16.1367878,5.40410395 16.2239571,5.40759144 16.3068524,5.3864977 L17.9796039,4.9684479 L19.2051487,5.37659771 C19.222695,5.38289771 19.2407475,5.3877352 19.2591374,5.3909977 L21.5086688,5.84099749 C21.6256445,5.86484747 21.7473441,5.84088499 21.8465485,5.77439752 L22.8705352,5.09129785 C23.3744864,5.65272883 23.8273734,6.25797854 24.2238533,6.89984698 L22.0103143,7.63784662 L19.6136636,7.23824682 L18.8218285,6.05024739 C18.7388208,5.9257662 18.5993498,5.85072873 18.449756,5.84999748 L15.7503183,5.84999748 C15.6309806,5.84999748 15.516592,5.89747246 15.4322345,5.98184742 L14.0825157,7.33184677 C13.9822991,7.43202797 13.9351151,7.57360915 13.9551922,7.71389659 L14.4050985,10.8638951 C14.4277625,11.0196513 14.5301162,11.1522324 14.6750423,11.2135449 L17.8243863,12.5635443 C17.9145925,12.602638 18.015259,12.6106817 18.1105267,12.5864942 L19.717142,12.1846444 L20.6992874,12.8407441 L20.6992874,14.3999934 C20.6985001,14.4696308 20.7139094,14.5384808 20.7442781,14.6011433 L22.4989126,18.1061916 L22.4989126,19.7999908 C22.4989126,19.9193532 22.5463777,20.0337657 22.6307351,20.1181406 L23.5719391,21.0599902 C19.3977648,26.6249688 11.5034841,27.7517682 5.93966182,23.5766702 Z" id="Shape"></path>
                    </g>
                </g>
            </g>
        </g>
    </g>
</svg>