<?xml version="1.0" encoding="UTF-8"?>
<svg width="49px" height="49px" viewBox="0 0 49 49" version="1.1" xmlns="http://www.w3.org/2000/svg" xmlns:xlink="http://www.w3.org/1999/xlink">
    <!-- Generator: Sketch 58 (84663) - https://sketch.com -->
    <title>google</title>
    <desc>Created with Sketch.</desc>
    <g id="Only-Page" stroke="none" stroke-width="1" fill="none" fill-rule="evenodd">
        <g id="myle_loginPage" transform="translate(-945.000000, -718.000000)">
            <g id="Group-2" transform="translate(859.000000, 718.000000)">
                <g id="google" transform="translate(86.112000, 0.000000)">
                    <circle id="Oval" fill="#EEEEEE" cx="24.336" cy="24.336" r="24.336"></circle>
                    <g id="Group" transform="translate(4.680000, 3.744000)" fill-rule="nonzero">
                        <path d="M8.91980578,24.3223695 L7.5188295,29.5524084 L2.39829342,29.6607322 C0.868004719,26.8223835 1.42108547e-14,23.5749516 1.42108547e-14,20.124 C1.42108547e-14,16.7869534 0.811563188,13.6400629 2.25011475,10.8691611 L2.25121528,10.8691611 L6.80993016,11.7049359 L8.80692272,16.2362947 C8.38895667,17.4548187 8.1611467,18.7628787 8.1611467,20.124 C8.16130392,21.6012274 8.42889023,23.0165892 8.91980578,24.3223695 Z" id="Path" fill="#FBBB00"></path>
                        <path d="M39.8963803,16.3645852 C40.1274918,17.58193 40.248,18.8391298 40.248,20.124 C40.248,21.5647526 40.0965197,22.970131 39.8079447,24.3257497 C38.8283147,28.9387837 36.2685576,32.9668852 32.7225673,35.8174184 L32.7214668,35.8163179 L26.9795236,35.5233407 L26.1668599,30.4502847 C28.5197957,29.0703757 30.3586262,26.9108976 31.3272509,24.3257497 L20.5664136,24.3257497 L20.5664136,16.3645852 L31.4842338,16.3645852 L39.8963803,16.3645852 L39.8963803,16.3645852 Z" id="Path" fill="#518EF8"></path>
                        <path d="M32.7213882,35.8163179 L32.7224887,35.8174184 C29.2738168,38.5894208 24.8929163,40.248 20.124,40.248 C12.4602934,40.248 5.79728419,35.9644965 2.39829342,29.6608108 L8.91980578,24.3224481 C10.6192619,28.8580518 14.9945811,32.0867747 20.124,32.0867747 C22.3287571,32.0867747 24.3942971,31.4907584 26.1667027,30.4502847 L32.7213882,35.8163179 Z" id="Path" fill="#28B446"></path>
                        <path d="M32.9690863,4.63292212 L26.449775,9.97018425 C24.6154253,8.82358791 22.4470643,8.16122531 20.124,8.16122531 C14.878475,8.16122531 10.4213235,11.5380482 8.80700133,16.2362947 L2.25121528,10.8691611 L2.25011475,10.8691611 C5.59934578,4.41179395 12.3463884,-1.77635684e-15 20.124,-1.77635684e-15 C25.0068213,-1.77635684e-15 29.4838611,1.73931103 32.9690863,4.63292212 Z" id="Path" fill="#F14336"></path>
                    </g>
                </g>
            </g>
        </g>
    </g>
</svg>