<?xml version="1.0" encoding="UTF-8"?>
<svg width="49px" height="49px" viewBox="0 0 49 49" version="1.1" xmlns="http://www.w3.org/2000/svg" xmlns:xlink="http://www.w3.org/1999/xlink">
    <!-- Generator: Sketch 58 (84663) - https://sketch.com -->
    <title>twitter rounded</title>
    <desc>Created with Sketch.</desc>
    <g id="Only-Page" stroke="none" stroke-width="1" fill="none" fill-rule="evenodd">
        <g id="myle_loginPage" transform="translate(-1117.000000, -718.000000)" fill-rule="nonzero">
            <g id="Group-2" transform="translate(859.000000, 718.000000)">
                <g id="twitter-rounded" transform="translate(258.336000, 0.000000)">
                    <circle id="Oval" fill="#55ACEE" cx="24.0178519" cy="24.0174237" r="24.0174237"></circle>
                    <path d="M38.7293695,17.2606235 C37.7001369,17.7170136 36.5929841,18.0256977 35.4318865,18.1635567 C36.6173877,17.4532835 37.5271711,16.3294335 37.9565888,14.9880917 C36.8472953,15.6461327 35.6181245,16.1235013 34.3110335,16.3808095 C33.2638193,15.2655221 31.7717747,14.5685211 30.1196081,14.5685211 C26.9497089,14.5685211 24.3787683,17.1394617 24.3787683,20.3093609 C24.3787683,20.7593291 24.4297161,21.1973095 24.5281868,21.6177364 C19.7570689,21.3784099 15.5266835,19.0930341 12.6950096,15.6187321 C12.2009437,16.4664361 11.9175195,17.4532835 11.9175195,18.5052071 C11.9175195,20.4964552 12.9317673,22.2543707 14.4713348,23.2836032 C13.5307259,23.254062 12.644918,22.9958976 11.8712811,22.5647673 C11.8708529,22.5891709 11.8708529,22.6135745 11.8708529,22.63755 C11.8708529,25.4191323 13.8505415,27.7391868 16.4762832,28.2662189 C15.9950613,28.398084 15.4868671,28.4678697 14.9641163,28.4678697 C14.5933528,28.4678697 14.2341489,28.4323347 13.8839359,28.3655459 C14.6143313,30.645784 16.7340195,32.3056569 19.246734,32.3523235 C17.281602,33.8923191 14.8065632,34.8098088 12.1161733,34.8098088 C11.6537893,34.8098088 11.1956867,34.7828364 10.7474311,34.7293197 C13.2866899,36.3587952 16.3050299,37.3088231 19.5468555,37.3088231 C30.106336,37.3088231 35.8809984,28.5612028 35.8809984,20.974252 C35.8809984,20.7255065 35.8754327,20.4776173 35.8643012,20.2318688 C36.9868668,19.4226968 37.9600139,18.411874 38.7293695,17.2606235 L38.7293695,17.2606235 Z" id="Path" fill="#F1F2F2"></path>
                </g>
            </g>
        </g>
    </g>
</svg>