<?xml version="1.0" encoding="UTF-8"?>
<svg width="49px" height="49px" viewBox="0 0 49 49" version="1.1" xmlns="http://www.w3.org/2000/svg" xmlns:xlink="http://www.w3.org/1999/xlink">
    <!-- Generator: Sketch 58 (84663) - https://sketch.com -->
    <title>linkedin rounded</title>
    <desc>Created with Sketch.</desc>
    <g id="Only-Page" stroke="none" stroke-width="1" fill="none" fill-rule="evenodd">
        <g id="myle_loginPage" transform="translate(-1031.000000, -718.000000)" fill-rule="nonzero">
            <g id="Group-2" transform="translate(859.000000, 718.000000)">
                <g id="linkedin-rounded" transform="translate(172.224000, 0.000000)">
                    <circle id="Oval" fill="#007AB9" cx="24.0174237" cy="24.4451289" r="24.0174237"></circle>
                    <path d="M38.3675968,26.3777228 L38.3675968,36.2795905 L32.6267569,36.2795905 L32.6267569,27.0413295 C32.6267569,24.7217031 31.7978908,23.1376097 29.7193035,23.1376097 C28.1330695,23.1376097 27.190748,24.2040899 26.7746024,25.2367475 C26.6234713,25.6057984 26.5845112,26.118274 26.5845112,26.6358872 L26.5845112,36.2791624 L20.8432432,36.2791624 C20.8432432,36.2791624 20.9203072,20.6326016 20.8432432,19.0129732 L26.5849393,19.0129732 L26.5849393,21.4597552 C26.5733797,21.4790212 26.5571107,21.4978591 26.5468355,21.5162688 L26.5849393,21.5162688 L26.5849393,21.4597552 C27.3478729,20.2858136 28.7084807,18.6075309 31.7589307,18.6075309 C35.5359229,18.6075309 38.3675968,21.0752915 38.3675968,26.3777228 L38.3675968,26.3777228 Z M14.8373888,10.6900612 C12.8735412,10.6900612 11.5887131,11.9791707 11.5887131,13.6728661 C11.5887131,15.3305984 12.8362936,16.6569555 14.7620373,16.6569555 L14.7992849,16.6569555 C16.8016645,16.6569555 18.0466763,15.3305984 18.0466763,13.6728661 C18.0085724,11.9791707 16.8016645,10.6900612 14.8373888,10.6900612 L14.8373888,10.6900612 Z M11.9299353,36.2795905 L17.6690627,36.2795905 L17.6690627,19.0129732 L11.9299353,19.0129732 L11.9299353,36.2795905 Z" id="Shape" fill="#F1F2F2"></path>
                </g>
            </g>
        </g>
    </g>
</svg>