<?xml version="1.0" encoding="UTF-8"?>
<svg width="40px" height="40px" viewBox="0 0 40 40" version="1.1" xmlns="http://www.w3.org/2000/svg" xmlns:xlink="http://www.w3.org/1999/xlink">
    <!-- Generator: Sketch 55.2 (78181) - https://sketchapp.com -->
    <title>Group 5</title>
    <desc>Created with Sketch.</desc>
    <g id="Only-Page" stroke="none" stroke-width="1" fill="none" fill-rule="evenodd">
        <g id="myle_IndexPage" transform="translate(-26.000000, -250.000000)">
            <g id="Group-11" transform="translate(27.000000, 251.000000)">
                <g id="Group-5">
                    <rect id="Rectangle-Copy-11" stroke="#FFFFFF" fill-opacity="0" fill="#D8D8D8" opacity="0.7" x="0" y="0" width="38" height="38" rx="7"></rect>
                    <g id="likes" transform="translate(6.000000, 6.000000)" fill="#FFFFFF" fill-rule="nonzero" opacity="0.699999988">
                        <path d="M26.2248311,13.1380095 C27.5925625,11.7696345 27.1699548,9.00174929 24.8008797,9.00174929 L18.5674151,9.00594729 C18.8041311,7.67937742 19.1470213,5.48032199 19.1334449,5.27269562 C19.0025549,3.30627968 17.7552702,0.913066475 17.7013128,0.815113004 C17.4738217,0.389365237 16.3252267,-0.187860576 15.1693214,0.0594719392 C13.6748773,0.380969225 13.5222302,1.33898916 13.5283222,1.6031137 C13.5283222,1.6031137 13.5927229,4.22389381 13.5989889,4.92321162 C12.8844893,6.50026251 10.4209019,10.6447439 9.67420198,10.9641421 C9.49562061,10.8555187 9.29301952,10.7970965 9.08223781,10.7970965 L1.20690374,10.7970965 C0.538006843,10.7970965 0,11.3407382 0,12.0097954 L0.00104433551,22.9478748 C0.0478653775,23.5375197 0.546361527,24 1.1351927,24 L8.20882521,24 C8.83612274,24 9.34610658,23.4874934 9.34610658,22.8570929 L9.34610658,22.4939654 C9.34610658,22.4939654 9.60893102,22.4741998 9.72833338,22.5513381 C10.1831415,22.8415253 10.745168,23.2067518 11.4782916,23.2067518 L22.0342608,23.2067518 C25.9808047,23.2067518 25.5571526,19.686374 25.1966828,19.2062271 C25.863491,18.4766486 26.2758295,17.1897849 25.7129327,16.1731678 C26.1449395,15.7129614 26.9052157,14.4479623 26.2248311,13.1380095 Z M7,23 L1,23 L1,12 L7,12 L7,23 Z M24.5340135,12.952214 L24.469091,13.2234054 C26.3023608,13.7449002 25.3265939,15.858613 24.0114755,15.9957006 L23.946553,16.266892 C25.7043724,16.7141383 24.8658199,18.8905147 23.4889374,19.0391872 L23.424015,19.3093254 C24.8595031,19.54506 24.5119048,21.9957873 22.337178,21.9957873 L11.5133764,22 C10.749046,22 10.0527966,21.1286771 9.49060321,21.1286771 L9,21.1286771 L9,12.6966447 C9.61149935,12.3175034 10.3631961,11.8253218 10.7809809,11.4702279 C11.5704028,10.7967255 14.8014355,5.57370294 14.8014355,4.92003524 C14.8014355,4.26636754 14.7301963,1.43860531 14.7301963,1.43860531 C14.7301963,1.43860531 15.3636289,0.621696216 16.7780611,1.21761507 C16.7780611,1.21761507 17.9684231,3.45051162 18.0898456,5.23001836 C18.0898456,5.23001836 17.5537967,8.8957531 17.2658569,10.0458151 L24.7696645,10.0458151 C26.6132867,10.0479214 26.2614772,12.6810227 24.5340135,12.952214 Z" id="Shape"></path>
                    </g>
                </g>
            </g>
        </g>
    </g>
</svg>