<?xml version="1.0" encoding="UTF-8"?>
<svg width="109px" height="109px" viewBox="0 0 109 109" version="1.1" xmlns="http://www.w3.org/2000/svg" xmlns:xlink="http://www.w3.org/1999/xlink">
    <!-- Generator: Sketch 55.2 (78181) - https://sketchapp.com -->
    <title>MYLE Logo Vector Finals__5 4</title>
    <desc>Created with Sketch.</desc>
    <defs>
        <path d="M8,0 L101,0 C105.418278,-8.11624501e-16 109,3.581722 109,8 L109,100.984861 C109,105.403139 105.418278,108.984861 101,108.984861 L8,108.984861 C3.581722,108.984861 5.41083001e-16,105.403139 0,100.984861 L0,8 C-5.41083001e-16,3.581722 3.581722,8.11624501e-16 8,0 Z" id="path-1"></path>
    </defs>
    <g id="Only-Page" stroke="none" stroke-width="1" fill="none" fill-rule="evenodd">
        <g id="myle_LoginPage" transform="translate(-666.000000, -123.000000)">
            <g id="MYLE-Logo-Vector-Finals__5-4" transform="translate(666.000000, 123.000000)">
                <g id="MYLE-Logo-Vector-Finals__5-3">
                    <g id="MYLE-Logo-Vector-Finals__5-2">
                        <g id="MYLE-Logo-Vector-Finals__5">
                            <rect id="Rectangle" fill="#FFFFFF" x="7.31712963" y="1.26157407" width="97.3935185" height="69.3865741"></rect>
                            <g id="Group-3">
                                <mask id="mask-2" fill="white">
                                    <use xlink:href="#path-1"></use>
                                </mask>
                                <g id="Clip-2"></g>
                                <path d="M0,109 L109,109 L109,0 L0,0 L0,109 Z M96.1395139,66.6325579 C96.1395139,66.6325579 77.5000093,70.4495764 77.5000093,45.5970718 L77.5000093,26.5924676 C77.5000093,26.5924676 74.2108333,14.1662153 61.053625,24.3995995 C60.4785995,24.8467014 60.0060139,25.1916157 59.5203079,25.5499028 L63.4294213,29.8140231 C63.4294213,42.3114282 63.4294213,66.6323056 63.4294213,66.6323056 C63.4294213,66.6323056 44.7896644,70.4493241 44.7896644,45.5968194 L44.7896644,26.5924676 C44.7896644,26.5924676 41.5002361,14.1662153 28.3432801,24.3995995 C27.7682546,24.8469537 27.295669,25.1918681 26.8097106,25.5501551 L30.3537245,29.4156181 L30.3537245,65.0154722 C28.2728843,65.6863773 25.1277801,66.1143032 21.6069792,66.1143032 C18.0869352,66.1143032 14.9410741,65.6863773 12.8604861,65.0154722 L12.8604861,9.74515509 C14.9410741,9.07374537 18.0869352,8.64632407 21.6069792,8.64632407 C25.1277801,8.64632407 28.2728843,9.07374537 30.3537245,9.74515509 L30.3537245,16.1988634 C33.8815903,12.9122106 39.271287,9.04927083 45.1552685,9.04927083 C52.3543148,9.04927083 58.401544,12.3500532 61.389456,17.8464792 C64.7142083,14.3829537 70.9504213,9.04927083 77.8653611,9.04927083 C88.0987454,9.04927083 96.1395139,15.6281273 96.1395139,25.8615116 C96.1395139,36.0946435 96.1395139,66.6325579 96.1395139,66.6325579 L96.1395139,66.6325579 Z" id="Fill-1" fill="#145143" mask="url(#mask-2)"></path>
                            </g>
                            <path d="M12.8604861,100.033236 C13.952,100.246947 14.9133194,100.353676 15.7444444,100.353676 C16.6462176,100.353676 17.5959306,100.246947 18.5928264,100.033236 L18.9846713,85.4355625 L22.4736806,95.0131806 C22.8771319,95.1083032 23.2687245,95.1734005 23.6487106,95.2089769 C24.0281921,95.2445532 24.3963194,95.2622153 24.752588,95.2622153 C25.1086042,95.2622153 25.5001968,95.2390023 25.9273657,95.1910625 C26.354787,95.1438796 26.781956,95.0843333 27.209125,95.0131806 L31.1258079,85.2930046 L31.6241296,100.033236 C32.7635833,100.246947 33.7481157,100.353676 34.5792407,100.353676 C35.3387083,100.353676 35.9500671,100.3181 36.4130648,100.246947 C36.8758102,100.175794 37.2969236,100.104641 37.6769097,100.033236 L36.4663032,74.6117616 C35.9679815,74.5406088 35.4572963,74.4755116 34.9352569,74.4159653 C34.4129653,74.3569236 33.9027847,74.3268981 33.404463,74.3268981 C32.9293542,74.3268981 32.4486944,74.3569236 31.9624838,74.4159653 C31.4755162,74.4755116 30.9948565,74.5406088 30.5205046,74.6117616 L25.2864861,87.8565231 L20.2306019,74.6117616 C19.7554931,74.5406088 19.2392569,74.4755116 18.6818935,74.4159653 C18.1240255,74.3569236 17.607537,74.3268981 17.1331852,74.3268981 C16.6346111,74.3268981 16.0944051,74.3569236 15.5130718,74.4159653 C14.9312338,74.4755116 14.3915324,74.5406088 13.8932106,74.6117616 L12.8604861,100.033236 Z M50.0320093,84.5098194 L45.652581,74.6117616 C45.2014421,74.5406088 44.6733472,74.4755116 44.068044,74.4159653 C43.4629931,74.3569236 42.9109282,74.3268981 42.4126065,74.3268981 C41.7949398,74.3268981 41.1424537,74.3569236 40.4543912,74.4159653 C39.7655718,74.4755116 39.2198148,74.5406088 38.8163634,74.6117616 C39.4335255,75.8935208 40.0744051,77.2287708 40.7390023,78.6172593 C41.4033472,80.0057477 42.0742523,81.3944884 42.7507083,82.7829769 C43.4271644,84.1714653 44.1038727,85.560206 44.7803287,86.9486944 C45.4567847,88.3371829 46.1032153,89.6724329 46.7206296,90.9541921 L46.7206296,100.033236 C47.9547014,100.246947 49.0111435,100.353676 49.8894514,100.353676 C50.7200718,100.353676 51.7644028,100.246947 53.0226968,100.033236 L53.0226968,90.9541921 L60.9625394,74.6117616 C60.5114005,74.5406088 59.9656435,74.4755116 59.3247639,74.4159653 C58.6838843,74.3569236 58.1613403,74.3268981 57.7581412,74.3268981 C57.1404745,74.3268981 56.5351713,74.3508681 55.9422315,74.3980509 C55.3485347,74.4459907 54.7790602,74.5171435 54.2333032,74.6117616 L50.0320093,84.5098194 Z M63.0986366,100.140218 L77.6251574,100.140218 C77.7437454,99.5233079 77.8209537,98.995213 77.8565301,98.5556806 C77.8921065,98.1169051 77.9100208,97.6957917 77.9100208,97.2918356 C77.9100208,96.9358194 77.8921065,96.5384236 77.8565301,96.0991435 C77.8209537,95.6601157 77.7437454,95.1438796 77.6251574,94.5501829 L69.4004514,94.5501829 L69.4004514,74.6117616 C68.783037,74.5171435 68.2077593,74.4459907 67.6736088,74.3980509 C67.1397106,74.3508681 66.6590509,74.3268981 66.2316296,74.3268981 C65.8279259,74.3268981 65.3649282,74.3508681 64.8431412,74.3980509 C64.3208495,74.4459907 63.7395162,74.5171435 63.0986366,74.6117616 L63.0986366,100.140218 Z M93.7538773,84.0112454 L86.8823356,84.0112454 L86.8823356,80.0948148 L95.6053634,80.0948148 C95.7951042,79.0033009 95.8902269,78.0654468 95.8902269,77.2820093 C95.8902269,76.8788102 95.8662569,76.4513889 95.8190741,76.00025 C95.7711343,75.5496157 95.6999815,75.0629005 95.6053634,74.5406088 L80.5802685,74.5406088 L80.5802685,100.140218 L95.8190741,100.140218 C96.0325324,99.1433218 96.1395139,98.2057199 96.1395139,97.327412 C96.1395139,96.5207616 96.0325324,95.6184838 95.8190741,94.6213356 L86.8823356,94.6213356 L86.8823356,89.5657037 L93.7538773,89.5657037 C93.967588,88.5453426 94.0743171,87.6195995 94.0743171,86.7884745 C94.0743171,85.9818241 93.967588,85.056081 93.7538773,84.0112454 L93.7538773,84.0112454 Z" id="Fill-4" fill="#B3CF38"></path>
                        </g>
                    </g>
                </g>
            </g>
        </g>
    </g>
</svg>